<svg width="429" height="155" viewBox="0 0 429 155" fill="none" xmlns="http://www.w3.org/2000/svg">
<g clip-path="url(#clip0)">
<path d="M7.14547 144.202L4.00537 155.254H40.9961L42.6556 149.27H42.6602V149.268L96.751 149.249L96.7578 149.268H96.7602L96.8346 149.505L98.7892 155.238H135.654L132.528 144.202H7.14547Z" fill="white"/>
<path d="M102.039 36.3989H37.6567L35.0466 45.6181H104.647L102.039 36.3989Z" fill="white"/>
<path d="M127.439 126.215H12.232L9.62646 135.434H130.047L127.439 126.215Z" fill="white"/>
<path d="M61.7934 77.1799H77.7633L79.0463 81.8618H114.898L112.293 72.647H27.3941L24.7839 81.8618H60.4684L61.7934 77.1799Z" fill="white"/>
<path d="M66.8508 59.3128H72.8636L74.0722 63.7225H109.766L107.158 54.5034H32.5351L29.9226 63.7225H65.6024L66.8508 59.3128Z" fill="white"/>
<path d="M56.7301 95.0729H82.6734L84.024 100.013H120.032L117.422 90.7935H22.2587L19.6509 100.013H55.3332L56.7301 95.0729Z" fill="white"/>
<path d="M96.8968 18.2129H42.8064L40.1941 27.4321H99.5026L96.8968 18.2129Z" fill="white"/>
<path d="M91.7281 0H47.9599L45.252 9.56576H94.4499L91.7281 0Z" fill="white"/>
<path d="M122.455 108.588H17.2232L14.6177 117.805H125.063L122.455 108.588Z" fill="white"/>
<path d="M170.548 134.729C172.482 134.729 173.93 133.818 173.93 133.818L174.655 134.825C174.655 134.825 173.307 135.96 170.548 135.96C166.627 135.96 164.522 133.101 164.522 129.673C164.522 126.245 166.627 123.389 170.548 123.389C173.307 123.389 174.655 124.522 174.655 124.522L173.93 125.529C173.93 125.529 172.482 124.617 170.548 124.617C167.436 124.617 165.937 126.894 165.937 129.673C165.937 132.453 167.436 134.729 170.548 134.729Z" fill="white"/>
<path d="M186.27 123.559V124.784H182.007V135.788H180.626V124.784H176.364V123.559H186.27Z" fill="white"/>
<path d="M189.875 124.787V129.903H193.582C195.388 129.903 196.248 128.899 196.248 127.347C196.248 125.794 195.388 124.787 193.582 124.787H189.875ZM188.492 135.788V123.561H193.582C196.155 123.561 197.647 124.991 197.647 127.347C197.647 129.699 196.155 131.131 193.582 131.131H189.875V135.788H188.492Z" fill="white"/>
<path d="M205.897 124.617C202.787 124.617 201.285 126.894 201.285 129.673C201.285 132.455 202.787 134.73 205.897 134.73C209.007 134.73 210.508 132.455 210.508 129.673C210.508 126.894 209.007 124.617 205.897 124.617ZM205.897 123.389C209.818 123.389 211.922 126.245 211.922 129.673C211.922 133.101 209.818 135.96 205.897 135.96C201.976 135.96 199.873 133.101 199.873 129.673C199.873 126.245 201.976 123.389 205.897 123.389Z" fill="white"/>
<path d="M223.98 135.788H222.599V125.596L215.933 135.788H214.315V123.559H215.698V133.75L222.36 123.559H223.98V135.788Z" fill="white"/>
<path d="M236.107 123.559V124.784H231.844V135.788H230.466V124.784H226.203V123.559H236.107Z" fill="white"/>
<path d="M246.057 128.924V130.152H239.709V134.559H246.542V135.79H238.328V123.561H246.459V124.786H239.709V128.924H246.057Z" fill="white"/>
<path d="M259.685 123.559V135.787H258.302V124.784H252.159V130.489C252.159 135.676 249.993 135.887 248.341 135.787V134.557C249.356 134.594 250.779 134.534 250.779 130.489V123.559H259.685Z" fill="white"/>
<path d="M267.356 134.557C268.999 134.557 269.571 133.485 269.571 132.171C269.571 130.85 268.999 129.782 267.356 129.782H263.802V134.557H267.356ZM263.802 123.559V128.547H267.356C269.75 128.547 270.954 130.083 270.954 132.171C270.954 134.25 269.75 135.788 267.356 135.788H262.422V123.559H263.802Z" fill="white"/>
<path d="M281.508 123.559H282.891V135.788H281.508V130.15H274.726V135.788H273.345V123.559H274.726V128.922H281.508V123.559Z" fill="white"/>
<path d="M288.377 130.84H292.749L290.566 125.57L288.377 130.84ZM293.26 132.069H287.872L286.329 135.788H284.855L290.013 123.559H291.122L296.277 135.788H294.803L293.26 132.069Z" fill="white"/>
<path d="M301.576 124.787C299.94 124.787 299.198 125.759 299.198 127.108C299.198 128.454 299.94 129.427 301.576 129.427H305.527V124.787H301.576ZM305.527 135.788V130.655H302.292L299.266 135.788H297.732L300.809 130.568C299.119 130.278 297.799 129.008 297.799 127.108C297.799 124.959 299.231 123.561 301.576 123.561H306.91V135.788H305.527Z" fill="white"/>
<path d="M322.1 123.559H323.958L318.486 128.75L324.112 135.788H322.433L317.532 129.645L315.745 131.369V135.788H314.363V123.559H315.745V129.596L322.1 123.559Z" fill="white"/>
<path d="M330.912 124.617C327.801 124.617 326.301 126.894 326.301 129.673C326.301 132.455 327.801 134.73 330.912 134.73C334.02 134.73 335.523 132.455 335.523 129.673C335.523 126.894 334.02 124.617 330.912 124.617ZM330.912 123.389C334.831 123.389 336.936 126.245 336.936 129.673C336.936 133.101 334.831 135.96 330.912 135.96C326.989 135.96 324.887 133.101 324.887 129.673C324.887 126.245 326.989 123.389 330.912 123.389Z" fill="white"/>
<path d="M345.457 133.775L349.657 123.558H351.583V135.787H350.204V125.733L346.071 135.787H344.843L340.71 125.733V135.787H339.328V123.558H341.253L345.457 133.775Z" fill="white"/>
<path d="M354.322 123.559H363.815V135.788H362.436V124.784H355.704V135.788H354.322V123.559Z" fill="white"/>
<path d="M369.306 130.84H373.676L371.494 125.57L369.306 130.84ZM374.188 132.069H368.8L367.256 135.788H365.784L370.941 123.559H372.046L377.204 135.788H375.731L374.188 132.069Z" fill="white"/>
<path d="M387.336 123.559H388.718V135.788H387.336V130.15H380.555V135.788H379.169V123.559H380.555V128.922H387.336V123.559Z" fill="white"/>
<path d="M401.115 135.788H399.732V125.596L393.069 135.788H391.452V123.559H392.831V133.75L399.495 123.559H401.115V135.788Z" fill="white"/>
<path d="M407.184 124.787C405.548 124.787 404.808 125.759 404.808 127.108C404.808 128.454 405.548 129.427 407.184 129.427H411.138V124.787H407.184ZM411.138 135.788V130.655H407.903L404.875 135.788H403.342L406.419 130.568C404.727 130.278 403.406 129.008 403.406 127.108C403.406 124.959 404.841 123.561 407.184 123.561H412.517V135.788H411.138Z" fill="white"/>
<path d="M197.515 73.848L206.74 45.2833H207.315L216.535 73.848H197.515ZM248.466 109.02L216.393 22.77C216.2 22.249 215.705 21.9048 215.152 21.9048H198.78C198.224 21.9048 197.729 22.249 197.536 22.77L165.522 109.02C165.361 109.455 165.685 109.918 166.149 109.918H184.374C184.651 109.918 184.897 109.748 184.997 109.487L191.751 91.7375H222.304L228.482 109.471C228.575 109.739 228.83 109.918 229.114 109.918H247.84C248.305 109.918 248.626 109.455 248.466 109.02Z" fill="white"/>
<path d="M320.298 85.9047C320.125 85.2719 319.356 85.0721 318.878 85.5187C313.588 90.4374 305.84 93.4725 297.835 93.4725C281.639 93.4725 268.512 81.0601 268.512 65.745C268.512 50.4324 281.639 38.0175 297.835 38.0175C306.258 38.0175 313.949 40.3365 319.295 45.7135C319.724 46.1437 320.486 45.8578 320.569 45.2577C321.298 39.9295 322.214 33.1825 322.798 28.8403C322.859 28.3775 322.656 27.9355 322.27 27.6704C313.202 21.4444 301.833 18.3326 289.661 20.028C269.023 22.9003 252.626 39.8177 250.362 60.5425C247.322 88.3744 269.023 111.92 296.224 111.92C306.456 111.92 315.884 108.553 323.535 102.91C324.001 102.564 324.205 101.954 324.048 101.394L320.298 85.9047Z" fill="white"/>
<path d="M393.488 109.92H412.456C412.993 109.92 413.299 109.311 412.984 108.878L377.365 60.2866L410.237 22.9933C410.611 22.57 410.311 21.9072 409.746 21.9072H391.194C390.648 21.9072 390.133 22.1398 389.769 22.5468L363.995 51.4603C363.427 52.0952 362.621 52.4559 361.769 52.4559H355.64V22.7119C355.64 22.2677 355.279 21.9072 354.831 21.9072H339.551C339.106 21.9072 338.742 22.2677 338.742 22.7119V109.113C338.742 109.56 339.106 109.92 339.551 109.92H354.831C355.279 109.92 355.64 109.56 355.64 109.113V70.229H361.621C362.563 70.229 363.451 70.6755 364.01 71.4337L391.954 109.146C392.312 109.632 392.88 109.92 393.488 109.92Z" fill="white"/>
</g>
<defs>
<clipPath id="clip0">
<rect width="429" height="155" fill="white"/>
</clipPath>
</defs>
</svg>
