<svg width="369" height="459" viewBox="0 0 369 459" fill="none" xmlns="http://www.w3.org/2000/svg">
<path d="M445.34 844.03C445.34 844.03 426.917 586.967 342.191 446.496C255.059 301.961 237.818 149.418 297.604 101.56" stroke="#177140" stroke-width="0.7808" stroke-miterlimit="10" stroke-linecap="round" stroke-linejoin="round"/>
<path d="M291.934 343.333C291.934 343.333 240.498 228.088 122.333 197.839" stroke="#177140" stroke-width="0.7808" stroke-miterlimit="10" stroke-linecap="round" stroke-linejoin="round"/>
<path d="M409.163 622.014C409.163 622.014 381.545 507.435 454.323 435.075" stroke="#177140" stroke-width="0.7808" stroke-miterlimit="10" stroke-linecap="round" stroke-linejoin="round"/>
<path d="M346.947 408.96C342.008 450.368 361.881 486.761 363.68 486.986C365.972 487.237 393.35 456.501 398.289 415.093C403.228 373.685 383.513 337.285 381.556 337.068C379.885 336.901 351.904 367.599 346.947 408.96Z" fill="#177140"/>
<path d="M272.75 380.531C311.642 395.588 334.482 430.208 333.841 431.898C332.997 434.04 292.976 443.836 254.084 428.779C215.192 413.723 192.313 379.279 192.994 377.413C193.624 375.834 233.858 365.475 272.75 380.531Z" fill="#177140"/>
<path d="M282.486 279.079C276.823 312.408 291.415 342.674 292.851 342.93C294.686 343.248 318.131 319.474 323.794 286.145C329.457 252.816 315.023 222.543 313.428 222.294C312.103 222.05 288.148 245.75 282.486 279.079Z" fill="#177140"/>
<path d="M295.811 59.7723C271.643 93.7297 271.665 135.228 273.135 136.274C274.981 137.605 313.814 123.71 337.982 89.7526C362.15 55.7951 362.275 14.4019 360.658 13.251C359.3 12.2159 319.961 25.7681 295.811 59.7723Z" fill="#177140"/>
<path d="M88.2626 164.663C128.903 173.912 156.514 204.891 156.114 206.65C155.575 208.891 117.395 224.358 76.7543 215.109C36.0957 205.814 8.46301 175.057 8.90342 173.122C9.29268 171.474 47.6219 155.415 88.2626 164.663Z" fill="#177140"/>
<path d="M168.512 253.499C210.13 250.7 245.456 272.418 245.566 274.251C245.742 276.54 213.593 302.347 171.976 305.146C130.358 307.945 95.0385 286.385 94.9222 284.395C94.8015 282.673 126.895 256.298 168.512 253.499Z" fill="#177140"/>
<path d="M211.328 185.01C225.131 214.613 219.221 246.59 217.9 247.201C216.27 247.983 188.336 231.747 174.58 202.127C160.776 172.524 166.547 140.6 167.96 139.954C169.187 139.379 197.524 155.408 211.328 185.01Z" fill="#177140"/>
</svg>
