<svg width="1920" height="600" viewBox="0 0 1920 600" fill="none" xmlns="http://www.w3.org/2000/svg">
<mask id="mask0" mask-type="alpha" maskUnits="userSpaceOnUse" x="0" y="0" width="1921" height="600">
<rect width="1921" height="600" fill="#F9F9F9"/>
</mask>
<g mask="url(#mask0)">
<path d="M809.14 1077.17C809.14 1077.17 789.978 773.324 701.852 607.291C611.223 436.455 593.289 256.153 655.474 199.586" stroke="#F3F3F3" stroke-width="0.7808" stroke-miterlimit="10" stroke-linecap="round" stroke-linejoin="round"/>
<path d="M649.577 485.356C649.577 485.356 596.077 349.14 473.17 313.386" stroke="#F3F3F3" stroke-width="0.7808" stroke-miterlimit="10" stroke-linecap="round" stroke-linejoin="round"/>
<path d="M771.511 814.749C771.511 814.749 742.785 679.32 818.484 593.792" stroke="#F3F3F3" stroke-width="0.7808" stroke-miterlimit="10" stroke-linecap="round" stroke-linejoin="round"/>
<path d="M821.031 531.982C795.893 572.119 795.916 621.168 797.445 622.405C799.366 623.978 839.757 607.555 864.895 567.418C890.034 527.281 890.163 478.355 888.481 476.995C887.02 475.793 846.151 491.79 821.031 531.982Z" fill="#F5F5F5"/>
<path d="M706.798 562.926C701.661 611.869 722.332 654.884 724.204 655.15C726.587 655.446 755.064 619.117 760.201 570.174C765.339 521.231 744.832 478.208 742.796 477.95C741.059 477.753 711.954 514.038 706.798 562.926Z" fill="#F5F5F5"/>
<path d="M629.624 529.324C670.077 547.12 693.833 588.04 693.166 590.038C692.289 592.57 650.662 604.148 610.209 586.352C569.756 568.555 545.958 527.844 546.667 525.638C547.322 523.771 589.171 511.527 629.624 529.324Z" fill="#F5F5F5"/>
<path d="M639.75 409.41C633.86 448.804 649.037 484.577 650.531 484.88C652.44 485.255 676.826 457.155 682.716 417.762C688.606 378.368 673.593 342.586 671.935 342.292C670.557 342.003 645.64 370.016 639.75 409.41Z" fill="#F5F5F5"/>
<path d="M653.61 150.195C628.472 190.332 628.495 239.381 630.024 240.618C631.944 242.191 672.336 225.768 697.474 185.631C722.612 145.494 722.742 96.5683 721.06 95.2081C719.647 93.9846 678.729 110.003 653.61 150.195Z" fill="#F5F5F5"/>
<path d="M437.731 274.173C480.003 285.104 508.722 321.722 508.306 323.801C507.746 326.449 468.033 344.731 425.761 333.799C383.471 322.813 354.729 286.459 355.187 284.171C355.592 282.223 395.459 263.242 437.731 274.173Z" fill="#F5F5F5"/>
<path d="M521.202 379.175C564.49 375.866 601.234 401.536 601.348 403.702C601.531 406.408 568.092 436.911 524.804 440.22C481.516 443.529 444.779 418.045 444.658 415.692C444.533 413.657 477.914 382.483 521.202 379.175Z" fill="#F5F5F5"/>
<path d="M565.736 298.223C580.093 333.213 573.946 371.009 572.572 371.731C570.877 372.655 541.822 353.465 527.513 318.455C513.156 283.465 519.157 245.732 520.628 244.968C521.904 244.289 551.378 263.233 565.736 298.223Z" fill="#F5F5F5"/>
</g>
</svg>
