<svg width="565" height="595" viewBox="0 0 565 595" fill="none" xmlns="http://www.w3.org/2000/svg">
<path d="M505.572 -141.594C434.703 -52.1449 428.897 61.3471 432.767 64.4162C437.627 68.3179 545.749 35.8102 616.618 -53.6386C687.488 -143.087 693.681 -256.272 689.423 -259.649C685.725 -262.629 576.399 -231.173 505.572 -141.594Z" fill="#127D43" fill-opacity="0.57"/>
<path d="M201.643 -85.5298C182.286 27.0143 231.469 129.353 236.356 130.221C242.585 131.232 321.774 51.0471 341.13 -61.497C360.487 -174.041 311.737 -276.376 306.417 -277.248C301.875 -277.94 221.042 -197.944 201.643 -85.5298Z" fill="#127D43" fill-opacity="0.57"/>
<path d="M2.83199 -173.771C107.022 -127.093 164.563 -29.185 162.572 -24.6528C159.964 -18.9128 49.1733 2.21577 -55.017 -44.4621C-159.207 -91.14 -216.883 -188.573 -214.757 -193.581C-212.812 -197.81 -101.358 -220.449 2.83199 -173.771Z" fill="#127D43" fill-opacity="0.57"/>
<path d="M195.923 305.634C276.888 386.032 296.351 497.979 292.854 501.414C288.394 505.88 177.326 486.485 96.231 406.129C15.136 325.773 -4.50411 214.171 -0.700193 210.349C2.44802 207.171 114.828 225.277 195.923 305.634Z" fill="#127D43" fill-opacity="0.57"/>
<path d="M414.53 679.859C351.088 774.852 354.494 888.345 358.658 891.091C363.832 894.593 468.872 853.424 532.324 758.568C595.767 663.575 592.788 550.328 588.196 547.337C584.316 544.71 477.973 584.867 414.53 679.859Z" fill="#127D43" fill-opacity="0.57"/>
<path d="M495.001 264.644C429.377 325.322 341.072 336.732 338.543 333.806C335.198 330.134 354.098 243.806 419.721 183.128C485.345 122.451 573.305 110.864 576.309 113.925C578.624 116.633 560.624 203.967 495.001 264.644Z" fill="#127D43" fill-opacity="0.57"/>
<path d="M198.811 657.308C264.24 738.684 270.366 842.318 266.807 845.106C262.361 848.763 163.329 819.816 97.8996 738.44C32.4703 657.065 26.0209 553.684 29.8193 550.534C33.1628 547.915 133.382 575.933 198.811 657.308Z" fill="#127D43" fill-opacity="0.57"/>
</svg>
