<svg width="641" height="488" viewBox="0 0 641 488" fill="none" xmlns="http://www.w3.org/2000/svg">
<path d="M256.403 155.043C223.169 227.427 154.479 267.086 151.388 265.62C147.389 263.771 133.407 186.318 166.582 113.858C199.756 41.3987 268.178 1.70624 271.597 3.28069C274.436 4.58018 289.577 82.5831 256.403 155.043Z" fill="#177140"/>
<path d="M492.14 296.784C425.113 339.978 395.751 413.598 397.654 416.513C399.994 420.194 478.697 423.027 545.691 379.923C612.718 336.728 642.286 263.385 640.177 260.193C638.422 257.433 559.166 253.59 492.14 296.784Z" fill="#177140"/>
<path d="M152.16 327.662C197.833 384.466 202.109 456.809 199.624 458.755C196.521 461.307 127.391 441.101 81.7182 384.296C36.0451 327.492 31.5431 255.326 34.1945 253.128C36.5285 251.3 106.487 270.858 152.16 327.662Z" fill="#177140"/>
</svg>
