<svg width="46" height="50" viewBox="0 0 46 50" fill="none" xmlns="http://www.w3.org/2000/svg">
<path fill-rule="evenodd" clip-rule="evenodd" d="M26.4603 44.7471C37.0656 42.9032 45.1288 33.6627 45.1288 22.5409C45.1288 10.0919 35.0264 0 22.5644 0C10.1024 0 0 10.0919 0 22.5409C0 33.3101 7.56001 42.3154 17.6676 44.5495L22.1613 49.1074L26.4603 44.7471Z" fill="#FFE454"/>
<ellipse cx="22.8969" cy="22.712" rx="14.133" ry="14.1182" fill="white"/>
<g clip-path="url(#clip0)">
<path d="M29.6097 27.7537L23.728 21.8719L16.8561 15H16.319L16.2094 15.2786C15.92 16.0141 15.7963 16.7663 15.8518 17.4539C15.9151 18.2377 16.2128 18.9162 16.7129 19.4163L22.0775 24.7808L22.785 24.0732L27.7446 29.6189C28.2379 30.1123 29.0871 30.1416 29.6097 29.6189C30.124 29.1047 30.124 28.2679 29.6097 27.7537Z" fill="#FFE454"/>
<path d="M19.5916 23.5386L15.3901 27.7401C14.8758 28.2543 14.8758 29.091 15.3901 29.6053C15.8786 30.0938 16.7236 30.1369 17.2552 29.6053L21.4568 25.4037L19.5916 23.5386Z" fill="#FFE454"/>
<path d="M29.3628 17.4977L26.9794 19.881L26.3577 19.2593L28.741 16.8759L28.1193 16.2542L25.736 18.6375L25.1142 18.0158L27.4976 15.6325L26.8758 15.0107L23.7671 18.1194C23.3868 18.4997 23.1598 19.0047 23.1277 19.5414C23.1195 19.6773 23.0887 19.8111 23.0376 19.9383L25.057 21.9577C25.1842 21.9065 25.318 21.8757 25.4539 21.8676C25.9906 21.8356 26.4955 21.6084 26.8758 21.2281L29.9845 18.1195L29.3628 17.4977Z" fill="#FFE454"/>
</g>
<defs>
<clipPath id="clip0">
<rect width="15" height="15" fill="white" transform="translate(15 15)"/>
</clipPath>
</defs>
</svg>
