<svg width="46" height="50" viewBox="0 0 46 50" fill="none" xmlns="http://www.w3.org/2000/svg">
<path fill-rule="evenodd" clip-rule="evenodd" d="M27.0745 44.7471C37.6798 42.9032 45.7431 33.6627 45.7431 22.5409C45.7431 10.0919 35.6406 0 23.1787 0C10.7167 0 0.614258 10.0919 0.614258 22.5409C0.614258 33.3101 8.17427 42.3154 18.2819 44.5495L22.7756 49.1074L27.0745 44.7471Z" fill="#3DB548"/>
<ellipse cx="23.511" cy="22.712" rx="14.133" ry="14.1182" fill="white"/>
<path d="M28.8623 16.9711H27.5103V16.1392C27.5103 14.9616 26.5482 14 25.3721 14H21.6294C20.4539 14 19.4897 14.9616 19.4897 16.1392V16.9711H18.1397C16.9611 16.9711 16 17.7852 16 18.9613V26.8613C16 28.0373 16.9611 29 18.1397 29H28.8623C30.0384 29 31 28.0379 31 26.8613V18.9613C31 17.7852 30.0384 16.9711 28.8623 16.9711ZM20.6364 16.1392C20.6364 15.6136 21.1048 15.1457 21.6294 15.1457H25.3721C25.8947 15.1457 26.3641 15.6141 26.3641 16.1392V16.9711H20.6364V16.1392ZM26.9375 24.4174H24.6457V26.7092H22.3548V24.4174H20.0635V21.5532H22.3554V19.2629H24.6462V21.5532H26.938L26.9375 24.4174Z" fill="#3DB548"/>
</svg>
