<svg width="46" height="50" viewBox="0 0 46 50" fill="none" xmlns="http://www.w3.org/2000/svg">
<path fill-rule="evenodd" clip-rule="evenodd" d="M26.4603 44.7471C37.0656 42.9032 45.1288 33.6627 45.1288 22.5409C45.1288 10.0919 35.0264 0 22.5644 0C10.1024 0 0 10.0919 0 22.5409C0 33.3101 7.56001 42.3154 17.6676 44.5495L22.1613 49.1074L26.4603 44.7471Z" fill="#37A671"/>
<ellipse cx="22.8968" cy="22.712" rx="14.133" ry="14.1182" fill="white"/>
<g clip-path="url(#clip0)">
<path d="M22.9641 27.057C22.8726 27.1851 22.7707 27.3064 22.6584 27.4187C22.1136 27.9637 21.3893 28.2638 20.6188 28.2638C19.8484 28.2638 19.1241 27.9637 18.5793 27.4187C17.4548 26.2939 17.4548 24.4636 18.5793 23.3388C18.6924 23.2256 18.8132 23.1232 18.9403 23.0317C18.6529 22.5773 18.4101 22.1228 18.2241 21.6853C18.2174 21.6695 18.2112 21.6539 18.2046 21.6382C17.883 21.8285 17.5852 22.0595 17.3145 22.3303C15.5633 24.0821 15.5633 26.9323 17.3145 28.6841C18.1628 29.5327 19.2907 30 20.4905 30C21.6902 30 22.8182 29.5327 23.6665 28.6841C23.9336 28.4169 24.1654 28.1165 24.3569 27.793C24.3415 27.7866 24.3262 27.7804 24.3107 27.7739C23.8732 27.5877 23.4187 27.3447 22.9641 27.057Z" fill="#37A671"/>
<path d="M26.8933 23.1739C26.2265 23.2521 25.6152 23.5411 25.1575 23.9989L25.1394 24.0171C24.9152 24.2414 24.6179 24.3646 24.3017 24.3647C24.3017 24.3647 24.3015 24.3647 24.3015 24.3647C23.9852 24.3647 23.6879 24.2415 23.4643 24.0178L21.9415 22.4945C21.4802 22.033 21.4803 21.2822 21.9416 20.8208L22.0267 20.7356C22.457 20.3051 22.7341 19.7301 22.8195 19.1002C22.2364 18.7492 21.6631 18.4843 21.1455 18.3305C19.9402 17.9725 19.3083 18.2764 18.9905 18.5943C18.4391 19.1459 18.4261 20.1334 18.9538 21.375C19.4174 22.4655 20.2705 23.6783 21.2945 24.7026C22.3185 25.727 23.531 26.5804 24.6211 27.0441C25.2276 27.302 25.7733 27.4308 26.2373 27.4308C26.7231 27.4308 27.1192 27.2896 27.4012 27.0074C27.7197 26.6889 28.0237 26.0554 27.6632 24.8464C27.5089 24.3289 27.244 23.7563 26.8933 23.1739Z" fill="#37A671"/>
<path d="M29.033 16.8981C28.422 16.3037 27.6129 15.9848 26.7541 16.0006C25.8946 16.0162 25.0963 16.3647 24.5064 16.9818C23.9943 17.5174 23.6836 18.2196 23.6315 18.9588C23.5682 19.856 23.1974 20.6862 22.5874 21.2964L22.5024 21.3815C22.3498 21.5341 22.3498 21.7814 22.5023 21.934L24.0252 23.4573C24.0985 23.5306 24.1979 23.5718 24.3016 23.5718C24.4052 23.5718 24.5046 23.5306 24.5779 23.4572L24.5968 23.4384C25.2294 22.8055 26.0873 22.425 27.0123 22.3669C27.7869 22.3182 28.516 21.9888 29.0653 21.4393C29.6733 20.8311 30.0048 20.0225 29.9988 19.1623C29.9928 18.3023 29.6498 17.4982 29.033 16.8981Z" fill="#37A671"/>
</g>
<defs>
<clipPath id="clip0">
<rect width="14" height="14" fill="white" transform="translate(16 16)"/>
</clipPath>
</defs>
</svg>
