<svg width="26" height="26" viewBox="0 0 26 26" fill="none" xmlns="http://www.w3.org/2000/svg">
<g clip-path="url(#clip0)">
<rect width="26" height="26" fill="white"/>
<path d="M20.8927 1.69381L22.0068 2.7557L7.91143 11.1922L1.08283 7.07492L1.72125 5.74593L7.91143 9.43322L20.8927 1.69381ZM18.0573 0L19.5595 0.794788L7.91769 7.76547L2.49111 4.54723L3.41119 3.38762L7.91143 6.07818L18.0573 0ZM23.0019 3.85016L23.8344 5.00977L7.91143 14.5407L0.225342 9.96091L0.575847 8.50163L7.91143 12.886L23.0019 3.85016Z" fill="#19BB4F"/>
<path d="M25.299 8.13687C25.7684 9.51147 26 10.9447 26 12.4561C26 13.9675 25.7684 15.4203 25.299 16.8405L24.9798 17.7395C24.3226 19.3551 23.3962 20.7949 22.207 22.0587C20.9928 23.2965 19.6158 24.2476 18.0573 24.9121C16.4174 25.6418 14.7275 26.0066 12.9875 26.0066C11.2224 26.0066 9.5325 25.6418 7.91767 24.9121C6.40924 24.2476 5.03852 23.2965 3.80549 22.0587C2.59124 20.7949 1.67116 19.3551 1.03274 17.7395C0.337987 16.0261 0 14.2672 0 12.4496V11.5506L7.91141 16.2346L24.598 6.27368L25.299 8.13687Z" fill="#19BB4F"/>
</g>
<defs>
<clipPath id="clip0">
<rect width="26" height="26" fill="white"/>
</clipPath>
</defs>
</svg>
