<svg width="15" height="31" viewBox="0 0 15 31" fill="none" xmlns="http://www.w3.org/2000/svg">
<g clip-path="url(#clip0)">
<path d="M4.51 23.8799L0 23.9199L5.24 29.1599C6.21 30.1299 8.12 30.9199 9.49 30.9199L14.06 30.9499L8.76 25.6399C7.79 24.6699 5.88 23.8799 4.51 23.8799Z" fill="#F3942D"/>
<path d="M7.08009 23.95V16.45C7.08009 15.08 6.29009 13.17 5.32009 12.2L2.09009 9.04004V11.53V16.45C2.09009 17.82 2.88009 19.73 3.85009 20.7L7.08009 23.95Z" fill="#F3942D"/>
<path d="M14.1301 4.51L14.1001 0L8.86007 5.24C7.89007 6.21 7.10007 8.12 7.10007 9.49L7.07007 14.06L12.3701 8.76C13.3501 7.79 14.1301 5.88 14.1301 4.51Z" fill="#F3942D"/>
</g>
<defs>
<clipPath id="clip0">
<rect width="14.13" height="30.94" fill="white"/>
</clipPath>
</defs>
</svg>
