<svg width="311" height="87" viewBox="0 0 311 87" fill="none" xmlns="http://www.w3.org/2000/svg">
<g clip-path="url(#clip0)">
<path d="M34.3311 45.0683C32.5009 43.8111 29.7747 43.8153 27.5093 45.2715C25.2481 46.7234 24.1218 49.1785 24.5186 51.3457L34.3311 45.0683Z" fill="#539B44"/>
<path d="M34.3312 45.064C34.728 47.2355 33.6017 49.6948 31.332 51.1467C29.0666 52.5902 26.3489 52.5944 24.5229 51.3414L34.3312 45.064Z" fill="#3C7A3B"/>
<path d="M13.6436 54.3005C11.8134 53.0433 9.0872 53.0475 6.82178 54.5036C4.56063 55.9555 3.43432 58.4107 3.83109 60.5779L13.6436 54.3005Z" fill="#539B44"/>
<path d="M13.6437 54.2961C14.0405 56.4677 12.9142 58.927 10.6445 60.3789C8.37909 61.8223 5.66144 61.8266 3.83545 60.5736L13.6437 54.2961Z" fill="#3C7A3B"/>
<path d="M13.8101 21.9563C12.6284 23.0146 10.6872 23.2601 8.94225 22.4347C7.20159 21.6092 6.1734 19.9668 6.25446 18.3879L13.8101 21.9563Z" fill="#539B44"/>
<path d="M13.813 21.9564C13.894 20.3775 12.8659 18.7309 11.1167 17.9055C9.37174 17.0843 7.4391 17.3298 6.25732 18.3881L13.813 21.9564Z" fill="#3C7A3B"/>
<path d="M28.7295 56.3831C29.3439 57.3058 29.297 58.7408 28.5162 59.9853C27.7397 61.2298 26.4641 61.9071 25.3591 61.7716L28.7295 56.3831Z" fill="#92C740"/>
<path d="M28.7295 56.383C27.6245 56.2475 26.3489 56.929 25.5724 58.1735C24.7959 59.418 24.749 60.853 25.3634 61.7715L28.7295 56.383Z" fill="#73A140"/>
<path d="M28.2646 69.1074C29.0197 69.9159 29.2117 71.3424 28.6443 72.697C28.0811 74.0473 26.9335 74.9235 25.8242 74.97L28.2646 69.1074Z" fill="#92C740"/>
<path d="M28.2645 69.1074C27.151 69.154 26.0034 70.0302 25.4445 71.389C24.8856 72.7435 25.0733 74.1658 25.8284 74.9743L28.2645 69.1074Z" fill="#73A140"/>
<path d="M46.7335 6.50171C45.5389 6.5779 44.3272 7.54725 43.7556 9.02032C43.1839 10.4892 43.4228 12.013 44.2547 12.8681L46.7335 6.50171Z" fill="#92C740"/>
<path d="M46.7335 6.50171C47.5654 7.35253 47.8043 8.88486 47.2284 10.3537C46.6567 11.8225 45.4451 12.7877 44.2505 12.8638L46.7335 6.50171Z" fill="#73A140"/>
<path d="M22.1039 65.6157C22.795 66.9576 22.5092 68.9217 21.2549 70.526C20.0006 72.126 18.1618 72.888 16.6814 72.562L22.1039 65.6157Z" fill="#04723B"/>
<path d="M22.1082 65.615C20.6235 65.2848 18.7805 66.051 17.5304 67.6595C16.2804 69.2638 15.9988 71.2195 16.6857 72.5613L22.1082 65.615Z" fill="#04582D"/>
<path d="M63.2868 13.7825C63.7859 15.209 63.2271 17.1138 61.7594 18.5276C60.2961 19.9414 58.3677 20.4409 56.947 19.9118L63.2868 13.7825Z" fill="#04723B"/>
<path d="M63.2867 13.7825C61.866 13.2534 59.929 13.7571 58.4657 15.1751C57.0023 16.5889 56.4477 18.4895 56.9469 19.916L63.2867 13.7825Z" fill="#04582D"/>
<path d="M81.7811 46.8251C80.7828 47.9637 78.8416 48.4336 76.8748 47.8791C74.9123 47.3245 73.5087 45.915 73.2612 44.4292L81.7811 46.8251Z" fill="#04723B"/>
<path d="M81.7811 46.8249C81.5336 45.3349 80.13 43.9254 78.159 43.3751C76.1922 42.8248 74.2553 43.2946 73.2612 44.4333L81.7811 46.8249Z" fill="#04582D"/>
<path d="M27.4879 31.9459C26.4896 33.0846 24.5484 33.5544 22.5816 32.9999C20.6191 32.4454 19.2155 31.0358 18.968 29.55L27.4879 31.9459Z" fill="#04723B"/>
<path d="M27.4879 31.946C27.2404 30.456 25.8368 29.0464 23.8658 28.4962C21.899 27.9459 19.9621 28.4157 18.968 29.5544L27.4879 31.946Z" fill="#04582D"/>
<path d="M12.6462 12.4025C13.6531 11.8691 15.142 12.0554 16.3707 12.9655C17.5994 13.8755 18.201 15.2343 17.9749 16.3434L12.6462 12.4025Z" fill="#04723B"/>
<path d="M12.6453 12.3982C12.415 13.5072 13.0208 14.8702 14.2537 15.7803C15.4824 16.6862 16.9714 16.8724 17.974 16.3391L12.6453 12.3982Z" fill="#04582D"/>
<path d="M55.3643 32.4922C55.5264 31.3705 56.5588 30.2911 58.0307 29.8509C59.4983 29.4106 60.9574 29.7366 61.7253 30.5705L55.3643 32.4922Z" fill="#04723B"/>
<path d="M55.3643 32.4879C56.1279 33.3303 57.5955 33.652 59.0632 33.2075C60.5308 32.7631 61.559 31.6837 61.7211 30.5662L55.3643 32.4879Z" fill="#04582D"/>
<path d="M26.9033 20.8388C25.7599 21.55 24.0022 21.4484 22.5005 20.4748C21.003 19.5012 20.2137 17.9477 20.41 16.6228L26.9033 20.8388Z" fill="#98CA40"/>
<path d="M26.9045 20.8389C27.1007 19.5139 26.3072 17.9562 24.8054 16.9826C23.308 16.0133 21.5545 15.9117 20.4111 16.6228L26.9045 20.8389Z" fill="#7CA840"/>
<path d="M35.9951 29.4613C34.5062 30.384 32.2194 30.2571 30.2654 28.9872C28.3157 27.7173 27.2875 25.6939 27.5435 23.9753L35.9951 29.4613Z" fill="#98CA40"/>
<path d="M35.998 29.4613C36.254 27.7342 35.2215 25.7067 33.2675 24.441C31.3178 23.1753 29.0353 23.0484 27.5464 23.9711L35.998 29.4613Z" fill="#7CA840"/>
<path d="M33.098 19.7764C31.7755 20.1404 30.0903 19.5394 28.9085 18.1594C27.731 16.7795 27.411 15.0355 27.987 13.8037L33.098 19.7764Z" fill="#98CA40"/>
<path d="M33.0939 19.7806C33.6741 18.5445 33.3498 16.7963 32.1681 15.4164C30.9906 14.0407 29.3054 13.4438 27.9871 13.8036L33.0939 19.7806Z" fill="#7CA840"/>
<path d="M55.2832 0.00854492C56.1322 1.18954 56.1407 3.0859 55.1765 4.75792C54.2123 6.42994 52.5698 7.38236 51.115 7.2596L55.2832 0.00854492Z" fill="#98CA40"/>
<path d="M55.2831 0.0127347C53.824 -0.110021 52.1772 0.846628 51.2173 2.52288C50.2574 4.1949 50.2659 6.08703 51.1149 7.26803L55.2831 0.0127347Z" fill="#7CA840"/>
<path d="M57.7318 56.2369C56.661 56.4485 55.364 55.8728 54.515 54.7088C53.666 53.5489 53.5167 52.1478 54.0457 51.2039L57.7318 56.2369Z" fill="#98CA40"/>
<path d="M57.7318 56.2348C58.265 55.2908 58.1115 53.8855 57.2582 52.7256C56.4049 51.5658 55.1122 50.9943 54.0457 51.206L57.7318 56.2348Z" fill="#7CA840"/>
<path d="M0.439453 38.9855C1.10073 37.0214 3.40455 35.3536 6.33552 34.943C9.26222 34.5324 11.9329 35.4976 13.1232 37.195L0.439453 38.9855Z" fill="#039649"/>
<path d="M0.439453 38.9812C1.62549 40.6871 4.30901 41.648 7.23998 41.2332C10.1667 40.8183 12.462 39.1548 13.1232 37.1907L0.439453 38.9812Z" fill="#0C6D38"/>
<g opacity="0.91">
<path opacity="0.91" d="M3.63062 30.0498C4.42842 31.8996 6.70237 33.3769 9.42429 33.6224C12.1419 33.8679 14.4927 32.8097 15.4142 31.1207L3.63062 30.0498Z" fill="url(#paint0_linear)"/>
<path opacity="0.91" d="M3.63062 30.0539C4.55214 28.3607 6.90715 27.3025 9.63334 27.5522C12.351 27.802 14.6164 29.2793 15.4142 31.1249L3.63062 30.0539Z" fill="url(#paint1_linear)"/>
</g>
<g opacity="0.91">
<path opacity="0.91" d="M36.2382 16.4746C35.0095 17.5328 34.425 19.6155 34.9029 21.7404C35.3807 23.8611 36.7673 25.385 38.2946 25.6686L36.2382 16.4746Z" fill="url(#paint2_linear)"/>
<path opacity="0.91" d="M36.2383 16.4746C37.7656 16.7582 39.1607 18.2863 39.63 20.4155C40.1036 22.5362 39.5191 24.6146 38.2904 25.6728L36.2383 16.4746Z" fill="url(#paint3_linear)"/>
</g>
<g opacity="0.91">
<path opacity="0.91" d="M55.5561 45.9277C55.2489 47.6675 56.2003 49.8348 58.0818 51.3121C59.959 52.7851 62.1988 53.128 63.6877 52.328L55.5561 45.9277Z" fill="url(#paint4_linear)"/>
<path opacity="0.91" d="M55.5571 45.9277C57.0503 45.1234 59.2944 45.4705 61.1716 46.9521C63.0445 48.4294 63.9916 50.5924 63.6887 52.3279L55.5571 45.9277Z" fill="url(#paint5_linear)"/>
</g>
<g opacity="0.91">
<path opacity="0.91" d="M32.0315 7.73364C31.1185 8.80881 30.8967 10.6798 31.5964 12.4449C32.2918 14.2058 33.6954 15.3318 35.0478 15.3741L32.0315 7.73364Z" fill="url(#paint6_linear)"/>
<path opacity="0.91" d="M32.0315 7.73779C33.3839 7.77589 34.7918 8.91032 35.4872 10.6755C36.1826 12.4406 35.9608 14.3073 35.0478 15.3783L32.0315 7.73779Z" fill="url(#paint7_linear)"/>
</g>
<g opacity="0.91">
<path opacity="0.91" d="M14.9065 38.3083C15.572 39.0702 16.8818 39.43 18.2172 39.1337C19.5525 38.8374 20.5082 37.9781 20.6874 37.0342L14.9065 38.3083Z" fill="url(#paint8_linear)"/>
<path opacity="0.91" d="M14.9065 38.3084C15.0857 37.3602 16.0456 36.5009 17.3852 36.2088C18.7206 35.9167 20.0261 36.2765 20.6916 37.0385L14.9065 38.3084Z" fill="url(#paint9_linear)"/>
</g>
<g opacity="0.91">
<path opacity="0.91" d="M29.5955 40.3655C30.5127 41.6989 32.535 42.5116 34.7193 42.283C36.8994 42.0545 38.5846 40.8608 39.0411 39.3877L29.5955 40.3655Z" fill="url(#paint10_linear)"/>
<path opacity="0.91" d="M29.5955 40.3654C30.0562 38.8923 31.7457 37.6944 33.93 37.47C36.1101 37.2457 38.1238 38.0627 39.0411 39.3918L29.5955 40.3654Z" fill="url(#paint11_linear)"/>
</g>
<g opacity="0.91">
<path opacity="0.91" d="M0 47.0578C1.05805 48.2811 3.15708 48.8695 5.30304 48.4081C7.44047 47.9467 8.98488 46.5752 9.27926 45.0598L0 47.0578Z" fill="url(#paint12_linear)"/>
<path opacity="0.91" d="M0 47.0619C0.294376 45.5465 1.83879 44.1708 3.98475 43.7136C6.12644 43.2565 8.21694 43.8449 9.27499 45.064L0 47.0619Z" fill="url(#paint13_linear)"/>
</g>
<g opacity="0.91">
<path opacity="0.91" d="M62.459 69.2089C63.2653 68.049 63.2312 66.2881 62.25 64.7939C61.273 63.3039 59.6475 62.5292 58.2268 62.7451L62.459 69.2089Z" fill="url(#paint14_linear)"/>
<path opacity="0.91" d="M62.459 69.2108C61.0383 69.4267 59.4086 68.6478 58.4316 67.1536C57.4589 65.6636 57.4247 63.9027 58.2268 62.7471L62.459 69.2108Z" fill="url(#paint15_linear)"/>
</g>
<g opacity="0.91">
<path opacity="0.91" d="M39.233 0.465576C37.3899 1.49419 36.0972 4.0001 36.1484 6.82771C36.1996 9.6511 37.5691 11.9538 39.4378 12.7073L39.233 0.465576Z" fill="url(#paint16_linear)"/>
<path opacity="0.91" d="M39.2288 0.465576C41.1017 1.22328 42.4712 3.53024 42.5181 6.36209C42.5608 9.18547 41.2723 11.6829 39.4335 12.7115L39.2288 0.465576Z" fill="url(#paint17_linear)"/>
</g>
<path d="M23.3369 42.2451C23.0084 44.4759 20.9691 46.6008 18.0765 47.4474C15.1882 48.2898 12.3212 47.604 10.8237 45.9151L23.3369 42.2451Z" fill="#DBE126"/>
<path d="M23.3369 42.2493C21.8394 40.5561 18.9639 39.8703 16.0713 40.7212C13.1873 41.572 11.1522 43.6927 10.8237 45.9192L23.3369 42.2493Z" fill="#B5C734"/>
<path d="M31.4854 35.4597C31.2507 36.9624 29.8642 38.3847 27.9059 38.9434C25.952 39.498 24.0193 39.0196 23.021 37.8725L31.4854 35.4597Z" fill="#DBE126"/>
<path d="M31.4854 35.4638C30.4828 34.3125 28.5459 33.8384 26.5919 34.3971C24.6422 34.9559 23.2556 36.3782 23.021 37.8766L31.4854 35.4638Z" fill="#B5C734"/>
<path d="M23.5415 54.8296C24.0364 56.2688 23.4732 58.1694 22.0014 59.562C20.5295 60.9504 18.5968 61.4203 17.1719 60.8616L23.5415 54.8296Z" fill="#DBE126"/>
<path d="M23.5415 54.8296C22.1166 54.2708 20.1754 54.7407 18.7078 56.1376C17.2402 57.5302 16.6813 59.4266 17.1719 60.8615L23.5415 54.8296Z" fill="#B5C734"/>
<path d="M45.688 27.8698C45.0182 26.3713 45.4107 24.3776 46.8058 22.9003C48.2009 21.4272 50.1762 20.9151 51.7206 21.4738L45.688 27.8698Z" fill="#DBE126"/>
<path d="M45.688 27.8698C47.2367 28.4328 49.2162 27.9164 50.6113 26.4391C52.0021 24.9617 52.3904 22.9723 51.7248 21.478L45.688 27.8698Z" fill="#B5C734"/>
<path d="M18.9833 26.8581C18.7786 25.7025 17.6821 24.6231 16.1633 24.2295C14.6445 23.8358 13.1641 24.2337 12.4089 25.1353L18.9833 26.8581Z" fill="#DBE126"/>
<path d="M18.9808 26.8539C18.2256 27.7598 16.7367 28.1577 15.2179 27.7598C13.7033 27.3619 12.6111 26.2867 12.4021 25.1311L18.9808 26.8539Z" fill="#B5C734"/>
<path d="M40.5481 37.1019C40.723 35.9717 40.0489 34.6425 38.7733 33.8086C37.5019 32.9747 36.0087 32.8858 35.0317 33.4869L40.5481 37.1019Z" fill="#DBE126"/>
<path d="M40.5472 37.1018C39.5702 37.7029 38.0728 37.614 36.8014 36.7758C35.53 35.9419 34.8602 34.6128 35.0309 33.4868L40.5472 37.1018Z" fill="#B5C734"/>
<path d="M25.8028 13.7149C26.1783 12.6355 25.7559 11.209 24.6509 10.1634C23.5502 9.11789 22.0954 8.76655 21.0288 9.18138L25.8028 13.7149Z" fill="#DBE126"/>
<path d="M25.8028 13.7107C24.732 14.1298 23.2772 13.7742 22.1765 12.7245C21.0757 11.6789 20.6576 10.2524 21.0288 9.17725L25.8028 13.7107Z" fill="#B5C734"/>
<path d="M80.9845 60.5609C81.2618 57.8941 79.6576 55.0157 76.7693 53.4749C73.8896 51.9383 70.596 52.1881 68.5012 53.877L80.9845 60.5609Z" fill="#539B44"/>
<path d="M80.9877 60.5566C78.8929 62.2498 75.5908 62.4996 72.7067 60.9503C69.8312 59.4053 68.2356 56.5353 68.5087 53.8728L80.9877 60.5566Z" fill="#3C7A3B"/>
<path d="M66.4863 21.1944C67.6681 22.2526 69.6093 22.4981 71.3542 21.6727C73.0949 20.8473 74.123 19.2049 74.042 17.626L66.4863 21.1944Z" fill="#539B44"/>
<path d="M66.4864 21.1945C66.4053 19.6156 67.4335 17.969 69.1827 17.1435C70.9276 16.3223 72.8603 16.5679 74.0421 17.6261L66.4864 21.1945Z" fill="#3C7A3B"/>
<path d="M58.4272 7.40771C59.0117 7.98763 59.1952 9.0374 58.8155 10.0618C58.4358 11.0819 57.6123 11.7634 56.7932 11.8312L58.4272 7.40771Z" fill="#92C740"/>
<path d="M58.4316 7.40771C57.6082 7.47544 56.7805 8.16118 56.4051 9.18132C56.0296 10.2015 56.2131 11.2512 56.7976 11.8312L58.4316 7.40771Z" fill="#73A140"/>
<path d="M51.021 19.5564C52.3905 19.6537 53.9221 18.7309 54.8009 17.1394C55.6755 15.5562 55.6371 13.7826 54.8265 12.6863L51.021 19.5564Z" fill="#98CA40"/>
<path d="M51.021 19.5562C50.2061 18.4599 50.1677 16.6821 51.0509 15.0947C51.9297 13.5116 53.4571 12.593 54.8266 12.6862L51.021 19.5562Z" fill="#7CA840"/>
<path d="M42.7144 37.8808C44.4422 38.7104 46.9082 38.3041 48.8749 36.6955C50.8374 35.0913 51.7163 32.7758 51.2342 30.9387L42.7144 37.8808Z" fill="#98CA40"/>
<path d="M42.7187 37.8807C42.2366 36.0394 43.1155 33.7197 45.0865 32.1154C47.0533 30.5154 49.515 30.1132 51.2386 30.9386L42.7187 37.8807Z" fill="#7CA840"/>
<path d="M65.791 14.6674C66.6912 15.2558 68.0948 15.205 69.3065 14.4515C70.5181 13.7023 71.1751 12.4747 71.0429 11.4165L65.791 14.6674Z" fill="#98CA40"/>
<path d="M65.7911 14.6715C65.6588 13.6091 66.3201 12.3815 67.5318 11.6323C68.7434 10.883 70.1428 10.8365 71.043 11.4206L65.7911 14.6715Z" fill="#7CA840"/>
<path d="M84.3366 37.5888C83.6754 35.6247 81.3715 33.9569 78.4406 33.5463C75.5139 33.1357 72.8431 34.1008 71.6528 35.7982L84.3366 37.5888Z" fill="#039649"/>
<path d="M84.3366 37.5845C83.1506 39.2904 80.4671 40.2513 77.5361 39.8364C74.6094 39.4216 72.3141 37.758 71.6528 35.7939L84.3366 37.5845Z" fill="#0C6D38"/>
<g opacity="0.91">
<path opacity="0.91" d="M80.1428 27.2136C79.4687 28.7714 77.5532 30.0201 75.2579 30.2275C72.9669 30.4349 70.983 29.5417 70.2065 28.1195L80.1428 27.2136Z" fill="url(#paint18_linear)"/>
<path opacity="0.91" d="M80.1454 27.2137C79.3689 25.7871 77.3808 24.894 75.0855 25.1056C72.7945 25.3173 70.8832 26.5618 70.2134 28.1153L80.1454 27.2137Z" fill="url(#paint19_linear)"/>
</g>
<g opacity="0.91">
<path opacity="0.91" d="M47.8381 14.1721C48.5164 15.2812 48.4439 17.0167 47.548 18.5236C46.6563 20.0263 45.2143 20.8517 43.9771 20.6951L47.8381 14.1721Z" fill="url(#paint20_linear)"/>
<path opacity="0.91" d="M47.8382 14.172C46.601 14.0153 45.1547 14.8408 44.2631 16.3519C43.3757 17.8589 43.3031 19.5902 43.9772 20.6992L47.8382 14.172Z" fill="url(#paint21_linear)"/>
</g>
<g opacity="0.91">
<path opacity="0.91" d="M80.4884 9.93896C80.7017 11.3274 79.9039 13.0375 78.3766 14.1804C76.8535 15.3191 75.0659 15.5561 73.8884 14.8873L80.4884 9.93896Z" fill="url(#paint22_linear)"/>
<path opacity="0.91" d="M80.4885 9.94313C79.311 9.27432 77.5191 9.51137 75.996 10.6585C74.4772 11.8014 73.6794 13.5073 73.8927 14.8957L80.4885 9.94313Z" fill="url(#paint23_linear)"/>
</g>
<g opacity="0.91">
<path opacity="0.91" d="M36.7969 51.7441C37.4369 52.9971 37.215 54.8723 36.1271 56.43C35.0392 57.9835 33.4137 58.7624 32.0869 58.4915L36.7969 51.7441Z" fill="url(#paint24_linear)"/>
<path opacity="0.91" d="M36.797 51.7437C35.4702 51.4728 33.8404 52.2517 32.7525 53.8136C31.6689 55.3713 31.4513 57.2381 32.087 58.491L36.797 51.7437Z" fill="url(#paint25_linear)"/>
</g>
<g opacity="0.91">
<path opacity="0.91" d="M35.082 60.7556C36.1187 61.9324 36.4002 64.0065 35.6622 65.9791C34.9241 67.9516 33.3882 69.23 31.8865 69.302L35.082 60.7556Z" fill="url(#paint26_linear)"/>
<path opacity="0.91" d="M35.082 60.7556C33.5803 60.8276 32.0401 62.1102 31.3021 64.087C30.5683 66.0595 30.8498 68.1294 31.8866 69.302L35.082 60.7556Z" fill="url(#paint27_linear)"/>
</g>
<g opacity="0.91">
<path opacity="0.91" d="M61.9811 22.9851C61.9854 24.8307 60.6159 26.9006 58.4102 28.0943C56.2088 29.2838 53.8367 29.2414 52.4417 28.1493L61.9811 22.9851Z" fill="url(#paint28_linear)"/>
<path opacity="0.91" d="M61.9812 22.9893C60.5861 21.8929 58.2055 21.8548 56.004 23.0528C53.8069 24.2465 52.4374 26.3121 52.4417 28.1535L61.9812 22.9893Z" fill="url(#paint29_linear)"/>
</g>
<g opacity="0.91">
<path opacity="0.91" d="M68.4618 38.5961C67.7962 39.3581 66.4865 39.7179 65.1511 39.4216C63.8158 39.1253 62.8601 38.266 62.6809 37.322L68.4618 38.5961Z" fill="url(#paint30_linear)"/>
<path opacity="0.91" d="M68.4617 38.5962C68.2825 37.648 67.3226 36.7887 65.9829 36.4967C64.6476 36.2046 63.3421 36.5644 62.6765 37.3263L68.4617 38.5962Z" fill="url(#paint31_linear)"/>
</g>
<g opacity="0.91">
<path opacity="0.91" d="M20.9007 49.585C21.0287 50.5839 20.4271 51.7946 19.3179 52.5861C18.2086 53.3777 16.9245 53.5132 16.0925 53.0179L20.9007 49.585Z" fill="url(#paint32_linear)"/>
<path opacity="0.91" d="M20.9007 49.585C20.0687 49.0855 18.7803 49.2252 17.6711 50.021C16.5618 50.8125 15.9645 52.0231 16.0925 53.0179L20.9007 49.585Z" fill="url(#paint33_linear)"/>
</g>
<g opacity="0.91">
<path opacity="0.91" d="M69.4259 1.51172C70.3048 3.16681 70.0531 5.66002 68.6366 7.75533C67.2245 9.84642 65.0785 10.9131 63.3123 10.5872L69.4259 1.51172Z" fill="url(#paint34_linear)"/>
<path opacity="0.91" d="M69.4259 1.51113C67.6554 1.18096 65.5052 2.25189 64.093 4.35144C62.6851 6.44675 62.4377 8.93574 63.3123 10.5866L69.4259 1.51113Z" fill="url(#paint35_linear)"/>
</g>
<path d="M59.2637 42.2451C59.5922 44.4759 61.6315 46.6008 64.5241 47.4474C67.4124 48.2898 70.2793 47.604 71.7768 45.9151L59.2637 42.2451Z" fill="#FFE454"/>
<path d="M59.2637 42.2493C60.7612 40.5561 63.6367 39.8703 66.5292 40.7212C69.4133 41.572 71.4483 43.6927 71.7768 45.9192L59.2637 42.2493Z" fill="#B5C734"/>
<path d="M51.3623 36.0776C51.597 37.5803 52.9835 39.0026 54.9418 39.5614C56.8957 40.1159 58.8284 39.6375 59.8267 38.4904L51.3623 36.0776Z" fill="#DBE126"/>
<path d="M51.3623 36.0776C52.3649 34.9262 54.3018 34.4521 56.2558 35.0109C58.2055 35.5696 59.5921 36.9919 59.8267 38.4904L51.3623 36.0776Z" fill="#B5C734"/>
<path d="M62.3865 34.1177C63.3635 35.2859 65.2918 35.8024 67.2586 35.2775C69.2211 34.7568 70.6333 33.36 70.8935 31.8657L62.3865 34.1177Z" fill="#DBE126"/>
<path d="M62.3865 34.1177C62.6467 32.6192 64.0631 31.2223 66.0299 30.7059C67.9924 30.1895 69.9165 30.7017 70.8935 31.87L62.3865 34.1177Z" fill="#B5C734"/>
<path d="M66.29 61.9027C67.011 60.4296 66.6867 58.4232 65.3428 56.8993C63.999 55.3797 62.045 54.7998 60.4792 55.3077L66.29 61.9027Z" fill="#DBE126"/>
<path d="M66.2943 61.9027C64.7286 62.4149 62.7661 61.8308 61.4222 60.3069C60.0826 58.783 59.7626 56.7809 60.4836 55.312L66.2943 61.9027Z" fill="#B5C734"/>
<path d="M25.0232 26.2656C25.2663 25.1311 24.7032 23.802 23.5214 22.9808C22.3396 22.1596 20.8934 22.0876 19.9036 22.7014L25.0232 26.2656Z" fill="#DBE126"/>
<path d="M25.0221 26.2656C24.028 26.8793 22.5817 26.8074 21.3957 25.982C20.2139 25.1565 19.655 23.8316 19.8982 22.7014L25.0221 26.2656Z" fill="#B5C734"/>
<path d="M41.6478 33.3135C42.6503 32.7124 43.2348 31.396 43.0258 29.9737C42.8167 28.5556 41.8781 27.4635 40.7476 27.1672L41.6478 33.3135Z" fill="#DBE126"/>
<path d="M41.6478 33.3161C40.5172 33.024 39.5744 31.9235 39.3696 30.5054C39.1648 29.0874 39.7493 27.7752 40.7476 27.1741L41.6478 33.3161Z" fill="#B5C734"/>
<path d="M53.4697 45.1656C53.8068 43.9508 53.282 42.4735 52.0448 41.5084C50.8118 40.5432 49.2503 40.3739 48.1326 40.9792L53.4697 45.1656Z" fill="#DBE126"/>
<path d="M53.4698 45.1615C52.3521 45.7668 50.7863 45.5975 49.5534 44.6281C48.3247 43.6588 47.7999 42.19 48.1369 40.9751L53.4698 45.1615Z" fill="#B5C734"/>
<path d="M64.5496 26.5281C64.7543 25.3725 65.8508 24.2931 67.3696 23.8994C68.8884 23.5057 70.3688 23.9036 71.124 24.8052L64.5496 26.5281Z" fill="#DBE126"/>
<path d="M64.5496 26.528C65.3047 27.4338 66.7936 27.8317 68.3124 27.4338C69.827 27.0359 70.9192 25.9608 71.1282 24.8052L64.5496 26.528Z" fill="#B5C734"/>
<path d="M44.1351 86.9999C44.374 86.9576 45.1932 86.7502 45.6326 85.785C46.072 84.8157 46.2086 84.5321 47.1173 83.7744C48.026 83.0125 47.1045 82.2336 46.9509 81.9754C46.7973 81.7172 46.7632 81.3616 46.729 81.0187C46.6949 80.6716 46.5371 79.6726 46.5712 79.1097C46.6053 78.5509 46.712 76.9085 46.6864 76.4514C46.6608 75.9984 46.5072 75.2746 46.3109 74.8936C46.119 74.5127 45.8928 73.5772 45.9056 73.4206C45.9184 73.2639 46.1318 73.2682 46.328 73.2809C46.5285 73.2978 47.0576 73.3486 47.6804 73.3613C48.3033 73.374 48.8579 73.1581 49.3571 72.9888C49.8563 72.8195 50.6797 72.1845 50.8972 72.0364C51.5713 71.5708 51.2386 71.1178 51.1874 70.9274C51.1404 70.7411 50.5517 69.8141 50.1762 69.0268C49.8008 68.2394 47.8724 64.9462 47.7146 64.7134C47.5567 64.4806 47.0106 63.744 46.7077 63.3207C46.5371 63.0837 45.9782 62.4149 45.6454 61.7503C45.3126 61.09 45.8886 61.0434 46.2171 61.3058C46.52 61.5471 47.6719 62.4318 47.8852 62.5969C48.0516 62.7239 48.0815 62.8085 48.3588 63.0879C48.6361 63.3673 49.1438 64.0403 49.34 64.3747C49.5363 64.7091 50.1634 64.8192 50.573 64.8107C51.1831 64.798 51.5799 65.0181 52.0449 65.3525C52.4374 65.6362 52.7275 65.5938 52.6422 65.416C52.5568 65.2383 52.1515 64.8277 51.8273 64.544C51.4988 64.2604 51.4263 64.0954 51.1106 63.9768C50.7949 63.8541 50.1506 63.4731 49.9288 63.2869C49.7069 63.0964 49.3187 62.199 49.2206 62.0339C49.1609 61.9323 49.131 61.8646 49.148 61.7545C49.1608 61.6656 49.2462 61.6106 49.2846 61.5556C49.34 61.4709 49.4851 61.4879 49.2462 61.0942C49.131 60.8995 49.0414 60.7344 48.7001 60.2053C48.4484 59.8116 48.3844 59.6338 48.1881 59.2529C48.1028 59.092 47.962 58.7915 47.8042 58.5248C47.6506 58.2158 47.5396 58.11 47.4714 57.9152C47.3733 57.6655 47.4415 57.2549 47.753 57.1237C48.1327 56.9671 48.4654 57.2295 48.5209 57.6655C48.5294 57.7205 48.6233 57.7502 48.666 57.7078C49.0883 57.2803 49.259 56.6961 49.1907 56.0062C49.3102 56.2813 49.7795 56.7131 50.2957 56.785C50.3725 56.7977 50.4066 56.7046 50.3469 56.6581C49.6941 56.1035 49.4382 55.0453 49.6344 53.9363C49.8477 52.7256 49.8264 52.078 49.724 51.7013C49.6216 51.3245 49.1267 50.6261 49.1267 50.6261C49.1267 50.6261 48.7641 50.0885 48.7044 49.5763C48.6446 49.0641 48.2351 48.4334 47.9748 48.226C47.7146 48.0186 47.6079 47.9297 47.2922 47.7096C46.9765 47.4895 45.3041 46.808 44.2375 47.0365C44.229 47.0365 44.2204 47.0408 44.2162 47.0408C44.1522 47.0492 44.0925 47.0577 44.0498 47.0704C43.8877 47.1212 43.6018 47.227 43.3928 47.3667C42.9789 47.6164 42.6376 47.972 42.3134 48.3868C42.2494 47.9551 42.147 47.3074 42.1214 46.863C42.083 46.2746 41.9593 44.8354 41.955 44.2597H41.9593C41.9593 44.2089 41.9593 44.1539 41.9593 44.0989C41.9721 43.9126 41.9977 43.7518 42.0489 43.5824C42.0574 43.557 42.0659 43.5359 42.0787 43.5105C42.1214 43.3623 42.2153 43.1888 42.3561 43.0279C42.5352 42.8205 42.9832 42.139 43.0344 42.0247C43.0856 41.9104 43.2008 41.7284 43.1752 41.6099C43.1539 41.4956 43.2136 41.3686 43.2563 41.267C43.2989 41.1654 43.2264 41.085 43.0899 41.14C42.9533 41.1951 42.8339 41.3009 42.7827 41.3898C42.7315 41.4787 42.6248 41.7199 42.4969 41.8893C42.3689 42.0586 42.211 41.9274 42.2025 41.8512C42.1939 41.775 42.2238 41.6734 42.2409 41.576C42.2579 41.4787 42.3518 41.0935 42.3859 40.9665C42.4201 40.8395 42.4542 40.4543 42.4414 40.1283C42.4286 39.8024 42.1342 39.8532 42.083 39.9971C42.0318 40.1453 42.0318 40.4077 42.0062 40.5135C41.9806 40.6236 41.874 40.958 41.8014 41.1231C41.7332 41.2882 41.6393 41.2416 41.6308 41.1908C41.6223 41.14 41.6009 41.0384 41.6009 40.9326C41.6009 40.831 41.6564 40.2723 41.6521 39.9294C41.6479 39.5823 41.2852 39.7093 41.2596 39.832C41.234 39.9548 41.2298 40.0987 41.2298 40.2088C41.2298 40.3188 41.1274 40.8098 41.0975 41.1146C41.0676 41.4194 40.9311 41.0935 40.914 40.9961C40.897 40.8987 40.8799 40.4839 40.8628 40.1961C40.8415 39.9082 40.6495 39.8786 40.5898 39.8955C40.5301 39.9125 40.4874 39.9844 40.4575 40.1495C40.4277 40.3146 40.4917 41.0808 40.4789 41.3093C40.4661 41.5379 40.3424 41.4871 40.2912 41.4152C40.2442 41.3432 40.1546 41.1866 40.129 41.0977C40.1034 41.0088 40.0181 40.7548 39.8688 40.6109C39.7195 40.467 39.6427 40.5855 39.6384 40.7548C39.6341 40.9199 39.6939 41.0257 39.7579 41.1993C39.8219 41.3728 39.984 41.7877 40.0352 42.0078C40.0906 42.2279 40.3765 43.1295 40.4234 43.3412C40.4277 43.3581 40.4277 43.375 40.4319 43.3962C40.4319 43.4004 40.4362 43.4047 40.4362 43.4089C40.4533 43.4766 40.4661 43.5443 40.4789 43.6121C40.4874 43.8872 40.4959 44.1666 40.5045 44.4163C40.5173 45.0216 40.3509 45.9444 40.2784 46.8122C40.2186 47.5741 40.1845 49.0006 40.2997 50.1097C40.2954 50.1097 40.2912 50.1139 40.2869 50.1139C40.2997 50.5668 40.3253 51.8282 40.2869 52.6579C40.24 53.6823 39.9755 55.604 39.9755 55.604C39.9755 55.604 39.8688 59.7058 39.7365 60.3915C39.6043 61.0773 38.9558 63.7779 38.559 64.7769C37.5479 67.3039 37.3175 71.7612 37.3303 72.2142C37.3474 72.8576 37.7527 73.2978 38.2604 73.4841C38.7681 73.6703 40.7861 73.3909 40.7861 73.3909C41.3065 74.0682 42.002 76.2863 42.0873 76.6207C42.1726 76.9593 43.3629 80.6208 43.5208 81.2812C43.6786 81.9415 43.7383 82.1405 43.6616 82.6484C43.5848 83.1564 43.4909 83.8082 43.3544 84.13C43.2179 84.4474 43.0771 85.5522 42.9021 86.0136C42.7272 86.475 43.1837 86.5385 43.5848 86.1999C43.9858 85.8655 44.5063 84.9765 44.5063 84.9765C44.5063 84.9765 44.4594 85.3871 44.3954 85.5692C44.3314 85.7469 44.2162 86.094 43.9645 86.4284" fill="#046C38"/>
</g>
<g clip-path="url(#clip1)">
<path d="M127.719 56.8995L124.121 52.8689H125.43L130.294 58.4117V52.8689H131.348V58.4117L136.212 52.8689H137.515L133.917 56.8995L137.757 62.2736H136.448L133.185 57.6931L131.342 59.749V62.2736H130.287V59.749L128.432 57.6931L125.182 62.2736H123.873L127.719 56.8995Z" fill="#010101"/>
<path d="M139.395 52.875H140.449V60.6737L146.021 52.875H147.019V62.2735H145.977V54.4685L140.418 62.2735H139.395V52.875Z" fill="#010101"/>
<path d="M148.266 62.1486L148.477 61.2863C148.626 61.355 149.011 61.4238 149.302 61.4238C150.022 61.4238 151.238 60.9801 151.238 54.5749V52.8689H157.274V62.2674H156.22V53.8375H152.249V54.8561C152.249 61.4487 150.915 62.3736 149.476 62.3736C149.067 62.3798 148.508 62.2424 148.266 62.1486Z" fill="#010101"/>
<path d="M159.508 57.5744C159.508 54.981 161.443 52.7126 164.279 52.7126C167.12 52.7126 169.025 54.956 169.025 57.5744C169.025 60.1677 167.089 62.4361 164.254 62.4361C161.419 62.4361 159.508 60.1927 159.508 57.5744ZM167.933 57.5744C167.933 55.4372 166.388 53.6937 164.254 53.6937C162.12 53.6937 160.6 55.4122 160.6 57.5744C160.6 59.7115 162.144 61.455 164.279 61.455C166.413 61.455 167.933 59.7365 167.933 57.5744Z" fill="#010101"/>
<path d="M171.246 52.875H172.3V60.6738L177.871 52.875H178.87V62.2735H177.828V54.4685L172.269 62.2673H171.246V52.875ZM173.218 50.4442L173.938 50.2942C174.099 50.8691 174.472 51.2378 175.123 51.2378C175.774 51.2378 176.153 50.8753 176.308 50.2942L177.028 50.4442C176.866 51.4003 176.134 52.0939 175.123 52.0939C174.112 52.0939 173.38 51.394 173.218 50.4442Z" fill="#010101"/>
<path d="M185.508 52.875H186.575L189.975 58.0054L193.375 52.875H194.442V62.2735H193.387V54.6622L189.988 59.6989H189.932L186.532 54.6747V62.2735H185.508V52.875Z" fill="#010101"/>
<path d="M197.079 52.875H198.133V60.6737L203.704 52.875H204.703V62.2735H203.661V54.4685L198.102 62.2672H197.079V52.875Z" fill="#010101"/>
<path d="M207.34 52.875H208.395V58.4866L213.755 52.875H215.113L211.118 56.9806L215.287 62.2735H213.966L210.38 57.7242L208.395 59.7489V62.2735H207.34V52.875Z" fill="#010101"/>
<path d="M216.919 52.875H220.412C222.515 52.875 223.904 53.9998 223.904 55.8808C223.904 57.9054 222.223 58.9553 220.238 58.9553H217.973V62.2735H216.919V52.875ZM220.281 57.9867C221.826 57.9867 222.843 57.1556 222.843 55.8933C222.843 54.5497 221.845 53.8498 220.337 53.8498H217.98V57.9867H220.281Z" fill="#010101"/>
<path d="M225.412 57.5744C225.412 54.981 227.347 52.7126 230.183 52.7126C233.024 52.7126 234.929 54.956 234.929 57.5744C234.929 60.1677 232.993 62.4361 230.158 62.4361C227.316 62.4361 225.412 60.1927 225.412 57.5744ZM233.837 57.5744C233.837 55.4372 232.292 53.6937 230.158 53.6937C228.024 53.6937 226.504 55.4122 226.504 57.5744C226.504 59.7115 228.049 61.455 230.183 61.455C232.317 61.455 233.837 59.7365 233.837 57.5744Z" fill="#010101"/>
<path d="M237.156 52.875H240.649C242.752 52.875 244.141 53.9998 244.141 55.8808C244.141 57.9054 242.46 58.9553 240.475 58.9553H238.21V62.2735H237.156V52.875ZM240.512 57.9867C242.057 57.9867 243.074 57.1556 243.074 55.8933C243.074 54.5497 242.075 53.8498 240.568 53.8498H238.21V57.9867H240.512Z" fill="#010101"/>
<path d="M248.577 52.8064H249.564L253.813 62.2736H252.678L251.586 59.7865H246.505L245.401 62.2736H244.321L248.577 52.8064ZM251.177 58.8367L249.055 54.0437L246.921 58.8367H251.177Z" fill="#010101"/>
<path d="M255.65 52.875H256.704V60.6738L262.276 52.875H263.274V62.2735H262.232V54.4685L256.673 62.2673H255.644V52.875H255.65ZM257.623 50.4442L258.342 50.2942C258.504 50.8691 258.876 51.2378 259.527 51.2378C260.179 51.2378 260.557 50.8753 260.712 50.2942L261.432 50.4442C261.271 51.4003 260.538 52.0939 259.527 52.0939C258.522 52.0939 257.784 51.394 257.623 50.4442Z" fill="#010101"/>
<path d="M265.501 57.5744C265.501 54.981 267.437 52.7126 270.272 52.7126C273.114 52.7126 275.018 54.956 275.018 57.5744C275.018 60.1677 273.089 62.4361 270.247 62.4361C267.406 62.4361 265.501 60.1927 265.501 57.5744ZM273.926 57.5744C273.926 55.4372 272.382 53.6937 270.247 53.6937C268.113 53.6937 266.593 55.4122 266.593 57.5744C266.593 59.7115 268.138 61.455 270.272 61.455C272.406 61.455 273.926 59.7365 273.926 57.5744Z" fill="#010101"/>
<path d="M277.245 52.875H278.3V57.0493H283.685V52.875H284.74V62.2735H283.685V58.0429H278.3V62.2735H277.245V52.875Z" fill="#010101"/>
<path d="M294.97 57.4494C294.486 56.3433 293.14 55.531 291.546 55.506C289.957 55.481 288.599 56.2433 288.078 57.3244L294.97 57.4494Z" fill="#039649"/>
<path d="M294.97 57.4494C294.455 58.5368 293.09 59.2991 291.496 59.2679C289.908 59.2366 288.568 58.4305 288.084 57.3245L294.97 57.4494Z" fill="#0C6D38"/>
<path d="M114.344 57.4494C114.827 56.3433 116.174 55.531 117.768 55.506C119.356 55.481 120.715 56.2433 121.236 57.3244L114.344 57.4494Z" fill="#039649"/>
<path d="M114.344 57.4494C114.858 58.5368 116.223 59.2991 117.818 59.2679C119.406 59.2366 120.746 58.4305 121.23 57.3245L114.344 57.4494Z" fill="#0C6D38"/>
<path d="M100.846 38.6835C101.658 39.5396 103.619 41.0831 105.902 41.0831C108.055 41.0831 110.009 39.8333 110.009 37.6024C110.009 35.534 108.346 34.3155 106.324 34.3155H103.681V30.866H106.032C107.924 30.866 109.357 29.5537 109.357 27.5791C109.357 25.7044 108.148 24.4921 106.032 24.4921C104.239 24.4921 102.899 25.4107 102.899 26.498V27.3541H99.0464V25.3107C99.0464 22.0612 103.129 20.7114 106.386 20.7114C111.082 20.7114 113.626 23.2423 113.626 26.8854C113.626 29.6475 112.062 31.2222 110.431 32.1096V32.1783C112.974 32.9344 114.345 35.1653 114.345 37.7962C114.345 41.8705 111.082 44.8263 106.026 44.8263C102.148 44.8263 99.7351 43.0203 98.364 41.608L100.846 38.6835Z" fill="#010101"/>
<path d="M121.002 24.7546H118.88V21.1052H132.87C134.434 21.1052 135.085 21.7926 135.085 23.3361V26.8855H131.239V25.4733C131.239 25.0108 130.978 24.7484 130.519 24.7484H125.27V30.8599H132.802V34.5093H125.27V40.0646C125.27 40.5271 125.531 40.7895 125.99 40.7895H131.369C131.828 40.7895 132.088 40.5271 132.088 40.0646V38.6461H135.935V42.1956C135.935 43.7703 135.283 44.4264 133.72 44.4264H123.217C121.685 44.4264 121.002 43.7703 121.002 42.1956V24.7546Z" fill="#010101"/>
<path d="M139.725 40.7833C143.181 40.3209 144.751 36.4465 144.751 27.4479V24.7546H142.598V21.1052H156.916C158.48 21.1052 159.131 21.7926 159.131 23.3361V40.0584C159.131 40.5208 159.392 40.7833 159.851 40.7833H161.253V44.4327H157.078C155.514 44.4327 154.863 43.7765 154.863 42.2018V25.4733C154.863 25.0108 154.602 24.7484 154.143 24.7484H148.795V27.4729C148.795 38.7086 146.153 44.4264 139.725 44.6202V40.7833Z" fill="#010101"/>
<path d="M167.742 24.7546H165.621V21.1052H179.61C181.174 21.1052 181.825 21.7926 181.825 23.3361V26.8855H177.979V25.4733C177.979 25.0108 177.718 24.7484 177.259 24.7484H172.011V30.8599H179.542V34.5093H172.011V40.0646C172.011 40.5271 172.271 40.7895 172.73 40.7895H178.109C178.568 40.7895 178.829 40.5271 178.829 40.0646V38.6461H182.675V42.1956C182.675 43.7703 182.024 44.4264 180.46 44.4264H169.957C168.425 44.4264 167.742 43.7703 167.742 42.1956V24.7546Z" fill="#010101"/>
<path d="M189.233 25.4733C189.233 25.0108 188.972 24.7484 188.513 24.7484H187.111V21.1052H191.286C192.849 21.1052 193.501 21.7926 193.501 23.3361V30.9911H203.712V23.3424C203.712 21.7989 204.395 21.1115 205.927 21.1115H210.103V24.7609H208.7C208.241 24.7609 207.981 25.0233 207.981 25.4858V44.4389H203.706V34.6405H193.495V44.4327H189.22V25.4733H189.233Z" fill="#010101"/>
<path d="M226.481 20.7114C233.299 20.7114 238.448 25.9356 238.448 32.6033C238.448 39.4709 233.293 44.8263 226.481 44.8263C219.663 44.8263 214.513 39.4709 214.513 32.6033C214.513 25.9356 219.669 20.7114 226.481 20.7114ZM226.481 40.8144C230.656 40.8144 234.012 37.265 234.012 32.6033C234.012 28.1352 230.65 24.717 226.481 24.717C222.312 24.717 218.949 28.1352 218.949 32.6033C218.949 37.2712 222.312 40.8144 226.481 40.8144Z" fill="#010101"/>
<path d="M267.712 40.7833H268.264C268.816 40.7833 269.046 40.6521 269.244 40.0584L276.125 21.1052H280.591L287.44 40.0584C287.67 40.6521 287.9 40.7833 288.452 40.7833H288.973V44.4327H286.429C284.798 44.4327 284.214 44.0078 283.724 42.5268L282.254 38.4524H274.456L272.985 42.5268C272.495 44.0078 271.912 44.4327 270.28 44.4327H267.706V40.7833H267.712ZM281.311 34.903L279.32 29.0539C278.898 27.7729 278.377 25.5733 278.377 25.5733H278.308C278.308 25.5733 277.818 27.7729 277.396 29.0539L275.442 34.903H281.311Z" fill="#010101"/>
<path d="M294.686 24.7546H292.565V21.1052H303.167C307.504 21.1052 310.537 24.161 310.537 28.6915C310.537 33.2283 307.504 36.3777 303.167 36.3777H298.961V44.4264H294.686V24.7546ZM302.385 32.7033C304.799 32.7033 306.17 31.1286 306.17 28.6977C306.17 26.2981 304.799 24.7546 302.454 24.7546H298.967V32.7033H302.385Z" fill="#010101"/>
<path d="M245.558 44.4388C245.601 44.4326 245.645 44.4263 245.694 44.4263H259.653C259.697 44.4263 259.734 44.4326 259.771 44.4388H264.151V42.914C264.151 41.3393 263.562 40.7769 262.029 40.7769H261.44V23.3422C261.44 21.7987 260.788 21.1113 259.225 21.1113H244.844V24.7607H246.966V26.2043C246.966 30.9347 246.544 36.3901 243.703 40.7894H243.244C241.68 40.7894 241.122 41.3456 241.122 42.9265V44.4513H245.558V44.4388ZM251.042 26.4917V24.7545H256.489C256.948 24.7545 257.209 25.0169 257.209 25.4794V40.7894H248.046C250.459 36.84 251.042 31.0597 251.042 26.4917Z" fill="#010101"/>
</g>
<defs>
<linearGradient id="paint0_linear" x1="7.56965" y1="33.695" x2="11.3934" y2="28.2806" gradientUnits="userSpaceOnUse">
<stop offset="0.0123" stop-color="#16B14B"/>
<stop offset="0.1632" stop-color="#50B548"/>
<stop offset="0.4233" stop-color="#8AC141"/>
<stop offset="1" stop-color="#FFE400"/>
</linearGradient>
<linearGradient id="paint1_linear" x1="7.94142" y1="33.0947" x2="11.7645" y2="27.6814" gradientUnits="userSpaceOnUse">
<stop offset="0.0123" stop-color="#16B14B"/>
<stop offset="0.2403" stop-color="#50B548"/>
<stop offset="0.6335" stop-color="#8AC141"/>
<stop offset="1" stop-color="#FFE400"/>
</linearGradient>
<linearGradient id="paint2_linear" x1="34.3808" y1="20.3311" x2="39.4671" y2="21.9679" gradientUnits="userSpaceOnUse">
<stop offset="0.0123" stop-color="#16B14B"/>
<stop offset="0.1632" stop-color="#50B548"/>
<stop offset="0.4233" stop-color="#8AC141"/>
<stop offset="1" stop-color="#FFE400"/>
</linearGradient>
<linearGradient id="paint3_linear" x1="34.9341" y1="20.4663" x2="40.0194" y2="22.1028" gradientUnits="userSpaceOnUse">
<stop offset="0.0123" stop-color="#16B14B"/>
<stop offset="0.2403" stop-color="#50B548"/>
<stop offset="0.6335" stop-color="#8AC141"/>
<stop offset="1" stop-color="#FFE400"/>
</linearGradient>
<linearGradient id="paint4_linear" x1="56.0297" y1="54.5039" x2="67.8533" y2="47.0118" gradientUnits="userSpaceOnUse">
<stop offset="0.0123" stop-color="#16B14B"/>
<stop offset="0.1632" stop-color="#50B548"/>
<stop offset="0.4233" stop-color="#8AC141"/>
<stop offset="1" stop-color="#FFE400"/>
</linearGradient>
<linearGradient id="paint5_linear" x1="57.2509" y1="50.2114" x2="62.6814" y2="48.0689" gradientUnits="userSpaceOnUse">
<stop offset="0.0123" stop-color="#16B14B"/>
<stop offset="0.2403" stop-color="#50B548"/>
<stop offset="0.6335" stop-color="#8AC141"/>
<stop offset="1" stop-color="#FFE400"/>
</linearGradient>
<linearGradient id="paint6_linear" x1="30.9235" y1="11.3167" x2="35.5259" y2="12.0366" gradientUnits="userSpaceOnUse">
<stop offset="0.0123" stop-color="#16B14B"/>
<stop offset="0.1632" stop-color="#50B548"/>
<stop offset="0.4233" stop-color="#8AC141"/>
<stop offset="1" stop-color="#FFE400"/>
</linearGradient>
<linearGradient id="paint7_linear" x1="31.418" y1="11.3591" x2="36.0196" y2="12.0789" gradientUnits="userSpaceOnUse">
<stop offset="0.0123" stop-color="#16B14B"/>
<stop offset="0.2403" stop-color="#50B548"/>
<stop offset="0.6335" stop-color="#8AC141"/>
<stop offset="1" stop-color="#FFE400"/>
</linearGradient>
<linearGradient id="paint8_linear" x1="17.3101" y1="39.4846" x2="18.3097" y2="36.3264" gradientUnits="userSpaceOnUse">
<stop offset="0.0123" stop-color="#16B14B"/>
<stop offset="0.1632" stop-color="#50B548"/>
<stop offset="0.4233" stop-color="#8AC141"/>
<stop offset="1" stop-color="#FFE400"/>
</linearGradient>
<linearGradient id="paint9_linear" x1="17.3951" y1="39.1422" x2="18.3946" y2="35.9846" gradientUnits="userSpaceOnUse">
<stop offset="0.0123" stop-color="#16B14B"/>
<stop offset="0.2403" stop-color="#50B548"/>
<stop offset="0.6335" stop-color="#8AC141"/>
<stop offset="1" stop-color="#FFE400"/>
</linearGradient>
<linearGradient id="paint10_linear" x1="33.3018" y1="42.6456" x2="35.4721" y2="37.7948" gradientUnits="userSpaceOnUse">
<stop offset="0.0123" stop-color="#16B14B"/>
<stop offset="0.1632" stop-color="#50B548"/>
<stop offset="0.4233" stop-color="#8AC141"/>
<stop offset="1" stop-color="#FFE400"/>
</linearGradient>
<linearGradient id="paint11_linear" x1="33.5005" y1="42.1155" x2="35.6703" y2="37.2657" gradientUnits="userSpaceOnUse">
<stop offset="0.0123" stop-color="#16B14B"/>
<stop offset="0.2403" stop-color="#50B548"/>
<stop offset="0.6335" stop-color="#8AC141"/>
<stop offset="1" stop-color="#FFE400"/>
</linearGradient>
<linearGradient id="paint12_linear" x1="3.87769" y1="48.8946" x2="5.50376" y2="43.8409" gradientUnits="userSpaceOnUse">
<stop offset="0.0123" stop-color="#16B14B"/>
<stop offset="0.1632" stop-color="#50B548"/>
<stop offset="0.4233" stop-color="#8AC141"/>
<stop offset="1" stop-color="#FFE400"/>
</linearGradient>
<linearGradient id="paint13_linear" x1="4.01653" y1="48.3463" x2="5.64232" y2="43.2935" gradientUnits="userSpaceOnUse">
<stop offset="0.0123" stop-color="#16B14B"/>
<stop offset="0.2403" stop-color="#50B548"/>
<stop offset="0.6335" stop-color="#8AC141"/>
<stop offset="1" stop-color="#FFE400"/>
</linearGradient>
<linearGradient id="paint14_linear" x1="63.0725" y1="65.7156" x2="58.1641" y2="65.5974" gradientUnits="userSpaceOnUse">
<stop offset="0.0123" stop-color="#16B14B"/>
<stop offset="0.1632" stop-color="#50B548"/>
<stop offset="0.4233" stop-color="#8AC141"/>
<stop offset="1" stop-color="#FFE400"/>
</linearGradient>
<linearGradient id="paint15_linear" x1="62.5491" y1="65.7705" x2="57.6417" y2="65.6524" gradientUnits="userSpaceOnUse">
<stop offset="0.0123" stop-color="#16B14B"/>
<stop offset="0.2403" stop-color="#50B548"/>
<stop offset="0.6335" stop-color="#8AC141"/>
<stop offset="1" stop-color="#FFE400"/>
</linearGradient>
<linearGradient id="paint16_linear" x1="35.8678" y1="4.92288" x2="41.909" y2="8.33527" gradientUnits="userSpaceOnUse">
<stop offset="0.0123" stop-color="#16B14B"/>
<stop offset="0.1632" stop-color="#50B548"/>
<stop offset="0.4233" stop-color="#8AC141"/>
<stop offset="1" stop-color="#FFE400"/>
</linearGradient>
<linearGradient id="paint17_linear" x1="36.537" y1="5.23807" x2="42.577" y2="8.64981" gradientUnits="userSpaceOnUse">
<stop offset="0.0123" stop-color="#16B14B"/>
<stop offset="0.2403" stop-color="#50B548"/>
<stop offset="0.6335" stop-color="#8AC141"/>
<stop offset="1" stop-color="#FFE400"/>
</linearGradient>
<linearGradient id="paint18_linear" x1="76.7991" y1="30.2256" x2="73.5747" y2="25.6597" gradientUnits="userSpaceOnUse">
<stop offset="0.0123" stop-color="#16B14B"/>
<stop offset="0.1632" stop-color="#50B548"/>
<stop offset="0.4233" stop-color="#8AC141"/>
<stop offset="1" stop-color="#FFE400"/>
</linearGradient>
<linearGradient id="paint19_linear" x1="76.4881" y1="29.7196" x2="73.2643" y2="25.1545" gradientUnits="userSpaceOnUse">
<stop offset="0.0123" stop-color="#16B14B"/>
<stop offset="0.2403" stop-color="#50B548"/>
<stop offset="0.6335" stop-color="#8AC141"/>
<stop offset="1" stop-color="#FFE400"/>
</linearGradient>
<linearGradient id="paint20_linear" x1="48.2919" y1="17.6248" x2="43.9966" y2="17.6098" gradientUnits="userSpaceOnUse">
<stop offset="0.0123" stop-color="#16B14B"/>
<stop offset="0.1632" stop-color="#50B548"/>
<stop offset="0.4233" stop-color="#8AC141"/>
<stop offset="1" stop-color="#FFE400"/>
</linearGradient>
<linearGradient id="paint21_linear" x1="47.8355" y1="17.5924" x2="43.5411" y2="17.5774" gradientUnits="userSpaceOnUse">
<stop offset="0.0123" stop-color="#16B14B"/>
<stop offset="0.2403" stop-color="#50B548"/>
<stop offset="0.6335" stop-color="#8AC141"/>
<stop offset="1" stop-color="#FFE400"/>
</linearGradient>
<linearGradient id="paint22_linear" x1="79.5371" y1="13.5329" x2="75.2484" y2="11.7267" gradientUnits="userSpaceOnUse">
<stop offset="0.0123" stop-color="#16B14B"/>
<stop offset="0.1632" stop-color="#50B548"/>
<stop offset="0.4233" stop-color="#8AC141"/>
<stop offset="1" stop-color="#FFE400"/>
</linearGradient>
<linearGradient id="paint23_linear" x1="79.0929" y1="13.3125" x2="74.8053" y2="11.5068" gradientUnits="userSpaceOnUse">
<stop offset="0.0123" stop-color="#16B14B"/>
<stop offset="0.2403" stop-color="#50B548"/>
<stop offset="0.6335" stop-color="#8AC141"/>
<stop offset="1" stop-color="#FFE400"/>
</linearGradient>
<linearGradient id="paint24_linear" x1="36.9636" y1="55.4601" x2="32.3192" y2="55.0927" gradientUnits="userSpaceOnUse">
<stop offset="0.0123" stop-color="#16B14B"/>
<stop offset="0.1632" stop-color="#50B548"/>
<stop offset="0.4233" stop-color="#8AC141"/>
<stop offset="1" stop-color="#FFE400"/>
</linearGradient>
<linearGradient id="paint25_linear" x1="36.4726" y1="55.388" x2="31.829" y2="55.0206" gradientUnits="userSpaceOnUse">
<stop offset="0.0123" stop-color="#16B14B"/>
<stop offset="0.2403" stop-color="#50B548"/>
<stop offset="0.6335" stop-color="#8AC141"/>
<stop offset="1" stop-color="#FFE400"/>
</linearGradient>
<linearGradient id="paint26_linear" x1="36.3465" y1="64.6152" x2="31.25" y2="65.508" gradientUnits="userSpaceOnUse">
<stop offset="0.0123" stop-color="#16B14B"/>
<stop offset="0.1632" stop-color="#50B548"/>
<stop offset="0.4233" stop-color="#8AC141"/>
<stop offset="1" stop-color="#FFE400"/>
</linearGradient>
<linearGradient id="paint27_linear" x1="35.7981" y1="64.6722" x2="30.7025" y2="65.5648" gradientUnits="userSpaceOnUse">
<stop offset="0.0123" stop-color="#16B14B"/>
<stop offset="0.2403" stop-color="#50B548"/>
<stop offset="0.6335" stop-color="#8AC141"/>
<stop offset="1" stop-color="#FFE400"/>
</linearGradient>
<linearGradient id="paint28_linear" x1="59.9565" y1="27.477" x2="54.7417" y2="24.2972" gradientUnits="userSpaceOnUse">
<stop offset="0.0123" stop-color="#16B14B"/>
<stop offset="0.1632" stop-color="#50B548"/>
<stop offset="0.4233" stop-color="#8AC141"/>
<stop offset="1" stop-color="#FFE400"/>
</linearGradient>
<linearGradient id="paint29_linear" x1="59.4226" y1="27.1053" x2="54.2089" y2="23.9261" gradientUnits="userSpaceOnUse">
<stop offset="0.0123" stop-color="#16B14B"/>
<stop offset="0.2403" stop-color="#50B548"/>
<stop offset="0.6335" stop-color="#8AC141"/>
<stop offset="1" stop-color="#FFE400"/>
</linearGradient>
<linearGradient id="paint30_linear" x1="65.9693" y1="39.6673" x2="64.9697" y2="36.5091" gradientUnits="userSpaceOnUse">
<stop offset="0.0123" stop-color="#16B14B"/>
<stop offset="0.1632" stop-color="#50B548"/>
<stop offset="0.4233" stop-color="#8AC141"/>
<stop offset="1" stop-color="#FFE400"/>
</linearGradient>
<linearGradient id="paint31_linear" x1="65.8843" y1="39.3248" x2="64.8848" y2="36.1672" gradientUnits="userSpaceOnUse">
<stop offset="0.0123" stop-color="#16B14B"/>
<stop offset="0.2403" stop-color="#50B548"/>
<stop offset="0.6335" stop-color="#8AC141"/>
<stop offset="1" stop-color="#FFE400"/>
</linearGradient>
<linearGradient id="paint32_linear" x1="20.1099" y1="52.1642" x2="17.0709" y2="50.7978" gradientUnits="userSpaceOnUse">
<stop offset="0.0123" stop-color="#16B14B"/>
<stop offset="0.1632" stop-color="#50B548"/>
<stop offset="0.4233" stop-color="#8AC141"/>
<stop offset="1" stop-color="#FFE400"/>
</linearGradient>
<linearGradient id="paint33_linear" x1="19.7958" y1="51.9991" x2="16.7574" y2="50.6329" gradientUnits="userSpaceOnUse">
<stop offset="0.0123" stop-color="#16B14B"/>
<stop offset="0.2403" stop-color="#50B548"/>
<stop offset="0.6335" stop-color="#8AC141"/>
<stop offset="1" stop-color="#FFE400"/>
</linearGradient>
<linearGradient id="paint34_linear" x1="69.8327" y1="6.41921" x2="63.6495" y2="6.03241" gradientUnits="userSpaceOnUse">
<stop offset="0.0123" stop-color="#16B14B"/>
<stop offset="0.1632" stop-color="#50B548"/>
<stop offset="0.4233" stop-color="#8AC141"/>
<stop offset="1" stop-color="#FFE400"/>
</linearGradient>
<linearGradient id="paint35_linear" x1="69.178" y1="6.33399" x2="62.996" y2="5.94726" gradientUnits="userSpaceOnUse">
<stop offset="0.0123" stop-color="#16B14B"/>
<stop offset="0.2403" stop-color="#50B548"/>
<stop offset="0.6335" stop-color="#8AC141"/>
<stop offset="1" stop-color="#FFE400"/>
</linearGradient>
<clipPath id="clip0">
<rect width="84.3367" height="87" fill="white"/>
</clipPath>
<clipPath id="clip1">
<rect x="98.364" y="20.7114" width="212.173" height="41.7245" fill="white"/>
</clipPath>
</defs>
</svg>
