<svg width="38" height="12" viewBox="0 0 38 12" fill="none" xmlns="http://www.w3.org/2000/svg">
<g clip-path="url(#clip0)">
<path fill-rule="evenodd" clip-rule="evenodd" d="M31.8621 12V8.99115H35.069V6.0177H31.8621V3.00885H38C38 5.20354 38 7.39823 38 9.59292L35.6552 12H31.8621ZM25.1379 9.59292L22.7931 12H15.7931H12.8621V8.99115L9.96552 11.9646V8.99115H12.8621V3.04425L9.96552 6.0177V1.76991L11.7241 0H15.8276V6.0177H22.2414V9.02655H15.7931V6.0177L18.7241 3.00885H25.1724C25.1379 5.20354 25.1379 7.39823 25.1379 9.59292ZM31.8621 3.00885V6.0177H28.6552V9.02655H31.8621V12.0354H28.6552H25.7241C25.7241 8.0354 25.7241 4.0354 25.7241 0.0353982H28.6552V6.0531L31.5862 3.04425H31.8621V3.00885ZM9.96552 11.9646L0 12L9.96552 1.76991V6.0177L7.06897 8.99115H9.96552V11.9646Z" fill="#009E2E"/>
</g>
<defs>
<clipPath id="clip0">
<rect width="38" height="12" fill="white"/>
</clipPath>
</defs>
</svg>
