<svg width="27" height="30" viewBox="0 0 27 30" fill="none" xmlns="http://www.w3.org/2000/svg">
<path d="M9.53681 26.0457H1.633V22.6493H9.53681V26.0457ZM11.1207 20.9477H0.0490723V29.4444H1.633V27.7474H11.1185L11.1207 20.9477ZM1.633 5.65356L4.80086 2.25257V14.148H1.633V5.65356ZM0.0490723 15.8519H6.37121V0.553223H4.00211L0.0490723 4.80388V15.8519ZM9.53681 2.25257H12.7047V14.148H9.53681V2.25257ZM7.95288 15.8519H14.275V0.553223H7.95741L7.95288 15.8519ZM25.3399 15.8519H26.9238V0.553223H24.5592L22.1879 3.10913V0.553223H19.8142L15.859 4.80388V15.8519H17.4429V5.65356L20.6107 2.25257V15.8519H22.1947V5.65356L25.3625 2.25257L25.3399 15.8519ZM0.0490723 19.2483H26.9329V17.549H0.0490723V19.2483ZM20.6062 22.6493H25.3444V26.0457H20.6062V22.6493ZM19.0223 26.0457H14.2705V22.6493H19.0223V26.0457ZM20.6062 27.7451H26.9419V20.9477H12.7069V27.7451H19.0223V29.4421H20.6062V27.7451Z" fill="#364650"/>
</svg>
