<svg width="74" height="80" viewBox="0 0 74 80" fill="none" xmlns="http://www.w3.org/2000/svg">
<path fill-rule="evenodd" clip-rule="evenodd" d="M43.061 72.8974C60.3203 69.8938 73.4426 54.84 73.4426 36.7213C73.4426 16.4407 57.0019 0 36.7213 0C16.4407 0 0 16.4407 0 36.7213C0 54.2659 12.3039 68.9367 28.7537 72.5759L36.0657 80L43.061 72.8974Z" fill="#3DB548"/>
<circle cx="37.2622" cy="37" r="23" fill="white"/>
<g clip-path="url(#clip0)">
<path d="M33.94 38.4633C33.3121 38.0291 32.377 38.0306 31.5999 38.5334C30.8243 39.0348 30.4379 39.8826 30.574 40.631L33.94 38.4633Z" fill="#539B44"/>
<path d="M33.9399 38.4619C34.076 39.2118 33.6897 40.061 32.9111 40.5624C32.134 41.0608 31.2018 41.0623 30.5754 40.6296L33.9399 38.4619Z" fill="#3C7A3B"/>
<path d="M26.8438 41.6517C26.2159 41.2176 25.2808 41.2191 24.5037 41.7219C23.7281 42.2233 23.3417 43.0711 23.4778 43.8194L26.8438 41.6517Z" fill="#539B44"/>
<path d="M26.8437 41.6504C26.9798 42.4002 26.5935 43.2495 25.8149 43.7508C25.0378 44.2493 24.1056 44.2507 23.4792 43.8181L26.8437 41.6504Z" fill="#3C7A3B"/>
<path d="M26.9008 30.4832C26.4954 30.8486 25.8296 30.9334 25.231 30.6484C24.6339 30.3633 24.2812 29.7962 24.309 29.251L26.9008 30.4832Z" fill="#539B44"/>
<path d="M26.9006 30.483C26.9284 29.9378 26.5757 29.3692 25.9757 29.0841C25.3772 28.8006 24.7142 28.8854 24.3088 29.2508L26.9006 30.483Z" fill="#3C7A3B"/>
<path d="M32.0184 42.3711C32.2292 42.6897 32.2131 43.1853 31.9453 43.615C31.6789 44.0447 31.2413 44.2786 30.8623 44.2318L32.0184 42.3711Z" fill="#92C740"/>
<path d="M32.0185 42.3711C31.6394 42.3243 31.2019 42.5597 30.9355 42.9894C30.6692 43.4191 30.6531 43.9147 30.8638 44.2318L32.0185 42.3711Z" fill="#73A140"/>
<path d="M31.8589 46.7646C32.118 47.0438 32.1838 47.5364 31.9892 48.0042C31.796 48.4704 31.4023 48.773 31.0219 48.7891L31.8589 46.7646Z" fill="#92C740"/>
<path d="M31.859 46.7646C31.477 46.7807 31.0833 47.0833 30.8916 47.5525C30.6999 48.0202 30.7643 48.5114 31.0233 48.7906L31.859 46.7646Z" fill="#73A140"/>
<path d="M38.1942 25.1465C37.7844 25.1728 37.3688 25.5075 37.1727 26.0162C36.9766 26.5234 37.0585 27.0496 37.3439 27.3449L38.1942 25.1465Z" fill="#92C740"/>
<path d="M38.1941 25.1465C38.4795 25.4403 38.5615 25.9694 38.3639 26.4766C38.1678 26.9838 37.7522 27.3171 37.3424 27.3434L38.1941 25.1465Z" fill="#73A140"/>
<path d="M29.7457 45.5596C29.9828 46.0229 29.8847 46.7012 29.4544 47.2551C29.0242 47.8077 28.3934 48.0708 27.8856 47.9582L29.7457 45.5596Z" fill="#04723B"/>
<path d="M29.7471 45.5593C29.2378 45.4453 28.6056 45.7098 28.1768 46.2653C27.748 46.8192 27.6514 47.4945 27.8871 47.9579L29.7471 45.5593Z" fill="#04582D"/>
<path d="M43.8723 27.6611C44.0435 28.1537 43.8518 28.8115 43.3484 29.2997C42.8464 29.7879 42.185 29.9604 41.6976 29.7777L43.8723 27.6611Z" fill="#04723B"/>
<path d="M43.8724 27.6607C43.3851 27.478 42.7207 27.652 42.2187 28.1416C41.7168 28.6299 41.5265 29.2862 41.6977 29.7787L43.8724 27.6607Z" fill="#04582D"/>
<path d="M50.2166 39.0705C49.8741 39.4637 49.2083 39.6259 48.5336 39.4345C47.8604 39.243 47.3789 38.7562 47.2941 38.2432L50.2166 39.0705Z" fill="#04723B"/>
<path d="M50.2166 39.0705C50.1317 38.556 49.6502 38.0693 48.9741 37.8792C48.2995 37.6892 47.6351 37.8515 47.2941 38.2447L50.2166 39.0705Z" fill="#04582D"/>
<path d="M31.5926 33.9328C31.2501 34.326 30.5842 34.4882 29.9096 34.2967C29.2364 34.1053 28.7549 33.6185 28.67 33.1055L31.5926 33.9328Z" fill="#04723B"/>
<path d="M31.5926 33.9328C31.5077 33.4183 31.0262 32.9316 30.3501 32.7415C29.6754 32.5515 29.011 32.7138 28.67 33.107L31.5926 33.9328Z" fill="#04582D"/>
<path d="M26.5016 27.1843C26.847 27.0002 27.3577 27.0645 27.7792 27.3787C28.2007 27.693 28.407 28.1622 28.3294 28.5452L26.5016 27.1843Z" fill="#04723B"/>
<path d="M26.5013 27.1826C26.4222 27.5656 26.63 28.0362 27.053 28.3505C27.4745 28.6633 27.9852 28.7276 28.3291 28.5435L26.5013 27.1826Z" fill="#04582D"/>
<path d="M41.1548 34.1215C41.2104 33.7341 41.5646 33.3614 42.0694 33.2094C42.5729 33.0574 43.0734 33.1699 43.3368 33.4579L41.1548 34.1215Z" fill="#04723B"/>
<path d="M41.1548 34.1197C41.4167 34.4105 41.9202 34.5216 42.4236 34.3682C42.927 34.2147 43.2797 33.8419 43.3353 33.4561L41.1548 34.1197Z" fill="#04582D"/>
<path d="M31.3922 30.0975C31 30.343 30.397 30.3079 29.8819 29.9717C29.3682 29.6356 29.0975 29.0991 29.1648 28.6416L31.3922 30.0975Z" fill="#98CA40"/>
<path d="M31.3919 30.0969C31.4592 29.6394 31.187 29.1015 30.6719 28.7653C30.1582 28.4306 29.5568 28.3955 29.1646 28.641L31.3919 30.0969Z" fill="#7CA840"/>
<path d="M34.5107 33.075C34 33.3937 33.2156 33.3498 32.5453 32.9113C31.8765 32.4728 31.5238 31.7741 31.6116 31.1807L34.5107 33.075Z" fill="#98CA40"/>
<path d="M34.5108 33.075C34.5986 32.4787 34.2445 31.7785 33.5742 31.3415C32.9054 30.9044 32.1224 30.8606 31.6117 31.1792L34.5108 33.075Z" fill="#7CA840"/>
<path d="M33.5171 29.7314C33.0635 29.8571 32.4854 29.6495 32.08 29.173C31.6761 28.6965 31.5663 28.0943 31.7639 27.6689L33.5171 29.7314Z" fill="#98CA40"/>
<path d="M33.5157 29.7322C33.7147 29.3054 33.6035 28.7017 33.1981 28.2252C32.7942 27.7501 32.2161 27.544 31.7639 27.6683L33.5157 29.7322Z" fill="#7CA840"/>
<path d="M41.1268 22.9043C41.418 23.3121 41.421 23.967 41.0902 24.5443C40.7595 25.1217 40.1961 25.4506 39.697 25.4082L41.1268 22.9043Z" fill="#98CA40"/>
<path d="M41.1269 22.906C40.6264 22.8636 40.0615 23.1939 39.7322 23.7728C39.4029 24.3501 39.4059 25.0035 39.6971 25.4113L41.1269 22.906Z" fill="#7CA840"/>
<path d="M41.9671 42.32C41.5997 42.3931 41.1548 42.1943 40.8636 41.7923C40.5724 41.3918 40.5212 40.908 40.7026 40.582L41.9671 42.32Z" fill="#98CA40"/>
<path d="M41.9671 42.3198C42.15 41.9939 42.0973 41.5086 41.8046 41.1081C41.5119 40.7076 41.0685 40.5103 40.7026 40.5833L41.9671 42.3198Z" fill="#7CA840"/>
<path d="M22.3143 36.364C22.5412 35.6858 23.3314 35.1098 24.3368 34.9681C25.3408 34.8263 26.2569 35.1595 26.6652 35.7457L22.3143 36.364Z" fill="#039649"/>
<path d="M22.3143 36.3624C22.7212 36.9515 23.6417 37.2833 24.6471 37.1401C25.651 36.9968 26.4383 36.4224 26.6652 35.7441L22.3143 36.3624Z" fill="#0C6D38"/>
<g opacity="0.91">
<path opacity="0.91" d="M23.4089 33.2783C23.6826 33.9171 24.4626 34.4272 25.3963 34.512C26.3285 34.5968 27.1349 34.2313 27.451 33.6481L23.4089 33.2783Z" fill="url(#paint0_linear)"/>
<path opacity="0.91" d="M23.4089 33.2797C23.725 32.6951 24.5329 32.3296 25.468 32.4159C26.4002 32.5021 27.1773 33.0123 27.451 33.6496L23.4089 33.2797Z" fill="url(#paint1_linear)"/>
</g>
<g opacity="0.91">
<path opacity="0.91" d="M34.5941 28.5908C34.1726 28.9562 33.9721 29.6754 34.136 30.4092C34.2999 31.1415 34.7756 31.6677 35.2995 31.7656L34.5941 28.5908Z" fill="url(#paint2_linear)"/>
<path opacity="0.91" d="M34.5941 28.5908C35.118 28.6888 35.5966 29.2164 35.7576 29.9517C35.92 30.684 35.7195 31.4017 35.298 31.7671L34.5941 28.5908Z" fill="url(#paint3_linear)"/>
</g>
<g opacity="0.91">
<path opacity="0.91" d="M41.2207 38.7607C41.1153 39.3615 41.4417 40.1099 42.087 40.62C42.731 41.1287 43.4993 41.2471 44.01 40.9708L41.2207 38.7607Z" fill="url(#paint4_linear)"/>
<path opacity="0.91" d="M41.2211 38.761C41.7333 38.4833 42.5031 38.6031 43.147 39.1147C43.7894 39.6248 44.1143 40.3718 44.0104 40.9711L41.2211 38.761Z" fill="url(#paint5_linear)"/>
</g>
<g opacity="0.91">
<path opacity="0.91" d="M33.1512 25.5723C32.838 25.9435 32.7619 26.5896 33.0019 27.1991C33.2405 27.8072 33.7219 28.196 34.1859 28.2106L33.1512 25.5723Z" fill="url(#paint6_linear)"/>
<path opacity="0.91" d="M33.1511 25.5742C33.615 25.5874 34.098 25.9791 34.3365 26.5886C34.5751 27.1982 34.499 27.8428 34.1858 28.2126L33.1511 25.5742Z" fill="url(#paint7_linear)"/>
</g>
<g opacity="0.91">
<path opacity="0.91" d="M27.2769 36.1304C27.5052 36.3935 27.9544 36.5177 28.4125 36.4154C28.8706 36.3131 29.1984 36.0164 29.2598 35.6904L27.2769 36.1304Z" fill="url(#paint8_linear)"/>
<path opacity="0.91" d="M27.2769 36.13C27.3383 35.8026 27.6676 35.5059 28.1271 35.405C28.5852 35.3042 29.033 35.4284 29.2613 35.6915L27.2769 36.13Z" fill="url(#paint9_linear)"/>
</g>
<g opacity="0.91">
<path opacity="0.91" d="M32.3157 36.8396C32.6303 37.3 33.324 37.5807 34.0733 37.5018C34.8211 37.4228 35.3992 37.0106 35.5558 36.502L32.3157 36.8396Z" fill="url(#paint10_linear)"/>
<path opacity="0.91" d="M32.3157 36.8397C32.4737 36.331 33.0533 35.9174 33.8025 35.8399C34.5504 35.7624 35.2411 36.0445 35.5558 36.5035L32.3157 36.8397Z" fill="url(#paint11_linear)"/>
</g>
<g opacity="0.91">
<path opacity="0.91" d="M22.1636 39.1499C22.5265 39.5723 23.2465 39.7755 23.9826 39.6162C24.7158 39.4568 25.2456 38.9832 25.3466 38.46L22.1636 39.1499Z" fill="url(#paint12_linear)"/>
<path opacity="0.91" d="M22.1636 39.152C22.2646 38.6287 22.7943 38.1536 23.5304 37.9958C24.2651 37.8379 24.9822 38.0411 25.3451 38.462L22.1636 39.152Z" fill="url(#paint13_linear)"/>
</g>
<g opacity="0.91">
<path opacity="0.91" d="M43.5886 46.8C43.8652 46.3995 43.8535 45.7914 43.5169 45.2754C43.1817 44.7609 42.6242 44.4934 42.1368 44.568L43.5886 46.8Z" fill="url(#paint14_linear)"/>
<path opacity="0.91" d="M43.5886 46.7994C43.1013 46.8739 42.5422 46.605 42.2071 46.089C41.8734 45.5745 41.8617 44.9664 42.1368 44.5674L43.5886 46.7994Z" fill="url(#paint15_linear)"/>
</g>
<g opacity="0.91">
<path opacity="0.91" d="M35.6216 23.0615C34.9894 23.4167 34.5459 24.282 34.5635 25.2585C34.5811 26.2334 35.0508 27.0286 35.6918 27.2888L35.6216 23.0615Z" fill="url(#paint16_linear)"/>
<path opacity="0.91" d="M35.6201 23.0615C36.2626 23.3232 36.7323 24.1198 36.7484 25.0977C36.7631 26.0726 36.3211 26.935 35.6904 27.2902L35.6201 23.0615Z" fill="url(#paint17_linear)"/>
</g>
<path d="M30.1687 37.4893C30.056 38.2596 29.3564 38.9933 28.3642 39.2857C27.3735 39.5766 26.39 39.3398 25.8763 38.7565L30.1687 37.4893Z" fill="#DBE126"/>
<path d="M30.1687 37.4908C29.655 36.9061 28.6686 36.6693 27.6764 36.9631C26.6871 37.2569 25.989 37.9892 25.8763 38.7581L30.1687 37.4908Z" fill="#B5C734"/>
<path d="M32.9639 35.1465C32.8834 35.6654 32.4078 36.1565 31.7361 36.3495C31.0658 36.5409 30.4029 36.3758 30.0604 35.9797L32.9639 35.1465Z" fill="#DBE126"/>
<path d="M32.9639 35.1475C32.62 34.7499 31.9556 34.5862 31.2853 34.7791C30.6165 34.9721 30.1409 35.4632 30.0604 35.9807L32.9639 35.1475Z" fill="#B5C734"/>
<path d="M30.239 41.835C30.4088 42.3319 30.2156 42.9882 29.7107 43.4691C29.2058 43.9486 28.5429 44.1108 28.0541 43.9179L30.239 41.835Z" fill="#DBE126"/>
<path d="M30.239 41.8352C29.7502 41.6422 29.0843 41.8045 28.5809 42.2868C28.0774 42.7677 27.8857 43.4226 28.054 43.9181L30.239 41.8352Z" fill="#B5C734"/>
<path d="M37.8357 32.525C37.606 32.0076 37.7406 31.3191 38.2192 30.809C38.6977 30.3003 39.3753 30.1235 39.9051 30.3164L37.8357 32.525Z" fill="#DBE126"/>
<path d="M37.8358 32.5255C38.367 32.7199 39.0461 32.5416 39.5246 32.0315C40.0017 31.5213 40.1349 30.8343 39.9066 30.3184L37.8358 32.5255Z" fill="#B5C734"/>
<path d="M28.6744 32.1759C28.6041 31.7768 28.228 31.4041 27.707 31.2682C27.186 31.1322 26.6782 31.2696 26.4192 31.581L28.6744 32.1759Z" fill="#DBE126"/>
<path d="M28.6745 32.175C28.4155 32.4878 27.9047 32.6252 27.3837 32.4878C26.8642 32.3504 26.4896 31.9791 26.4178 31.5801L28.6745 32.175Z" fill="#B5C734"/>
<path d="M36.0719 35.7134C36.1319 35.3232 35.9007 34.8642 35.4631 34.5762C35.027 34.2883 34.5148 34.2576 34.1797 34.4651L36.0719 35.7134Z" fill="#DBE126"/>
<path d="M36.0723 35.7131C35.7371 35.9207 35.2235 35.89 34.7874 35.6006C34.3512 35.3126 34.1215 34.8537 34.18 34.4648L36.0723 35.7131Z" fill="#B5C734"/>
<path d="M31.0146 27.6368C31.1433 27.2641 30.9985 26.7715 30.6194 26.4105C30.2419 26.0494 29.7428 25.9281 29.377 26.0714L31.0146 27.6368Z" fill="#DBE126"/>
<path d="M31.0145 27.6348C30.6472 27.7795 30.1482 27.6567 29.7706 27.2942C29.393 26.9332 29.2496 26.4406 29.3769 26.0693L31.0145 27.6348Z" fill="#B5C734"/>
<path d="M49.9427 43.814C50.0378 42.8932 49.4876 41.8992 48.4968 41.3671C47.509 40.8366 46.3792 40.9228 45.6606 41.506L49.9427 43.814Z" fill="#539B44"/>
<path d="M49.9443 43.8129C49.2257 44.3976 48.093 44.4838 47.1037 43.9488C46.1173 43.4153 45.57 42.4243 45.6637 41.5049L49.9443 43.8129Z" fill="#3C7A3B"/>
<path d="M44.9701 30.2205C45.3755 30.5859 46.0413 30.6707 46.6399 30.3857C47.237 30.1006 47.5897 29.5335 47.5619 28.9883L44.9701 30.2205Z" fill="#539B44"/>
<path d="M44.97 30.2203C44.9422 29.6751 45.2949 29.1065 45.8949 28.8215C46.4935 28.5379 47.1564 28.6227 47.5618 28.9881L44.97 30.2203Z" fill="#3C7A3B"/>
<path d="M42.2056 25.459C42.4061 25.6592 42.4691 26.0217 42.3388 26.3755C42.2086 26.7277 41.9261 26.9631 41.6451 26.9865L42.2056 25.459Z" fill="#92C740"/>
<path d="M42.2071 25.459C41.9246 25.4824 41.6407 25.7192 41.5119 26.0714C41.3831 26.4237 41.4461 26.7862 41.6466 26.9865L42.2071 25.459Z" fill="#73A140"/>
<path d="M39.665 29.6546C40.1348 29.6882 40.6602 29.3695 40.9617 28.8199C41.2617 28.2733 41.2485 27.6608 40.9704 27.2822L39.665 29.6546Z" fill="#98CA40"/>
<path d="M39.6651 29.6548C39.3856 29.2763 39.3724 28.6623 39.6753 28.1142C39.9768 27.5675 40.5007 27.2503 40.9705 27.2825L39.6651 29.6548Z" fill="#7CA840"/>
<path d="M36.8157 35.9821C37.4084 36.2686 38.2543 36.1283 38.9289 35.5729C39.6021 35.0189 39.9036 34.2193 39.7382 33.585L36.8157 35.9821Z" fill="#98CA40"/>
<path d="M36.8172 35.9818C36.6518 35.3459 36.9533 34.5449 37.6294 33.9909C38.304 33.4384 39.1485 33.2995 39.7397 33.5846L36.8172 35.9818Z" fill="#7CA840"/>
<path d="M44.7314 27.9663C45.0402 28.1695 45.5217 28.152 45.9373 27.8918C46.353 27.6331 46.5783 27.2092 46.533 26.8438L44.7314 27.9663Z" fill="#98CA40"/>
<path d="M44.7314 27.9674C44.6861 27.6005 44.9129 27.1766 45.3285 26.9179C45.7441 26.6591 46.2242 26.6431 46.5329 26.8448L44.7314 27.9674Z" fill="#7CA840"/>
<path d="M51.0932 35.8806C50.8663 35.2024 50.0761 34.6265 49.0707 34.4847C48.0667 34.3429 47.1506 34.6761 46.7423 35.2623L51.0932 35.8806Z" fill="#039649"/>
<path d="M51.0932 35.879C50.6863 36.4681 49.7658 36.7999 48.7604 36.6567C47.7565 36.5134 46.9691 35.939 46.7423 35.2607L51.0932 35.879Z" fill="#0C6D38"/>
<g opacity="0.91">
<path opacity="0.91" d="M49.6547 32.2979C49.4235 32.8358 48.7664 33.267 47.9791 33.3386C47.1932 33.4102 46.5127 33.1018 46.2463 32.6107L49.6547 32.2979Z" fill="url(#paint18_linear)"/>
<path opacity="0.91" d="M49.6547 32.2982C49.3884 31.8056 48.7064 31.4972 47.9191 31.5703C47.1332 31.6433 46.4776 32.0731 46.2478 32.6095L49.6547 32.2982Z" fill="url(#paint19_linear)"/>
</g>
<g opacity="0.91">
<path opacity="0.91" d="M38.5733 27.7949C38.806 28.1779 38.7811 28.7772 38.4738 29.2975C38.1679 29.8164 37.6733 30.1015 37.2489 30.0474L38.5733 27.7949Z" fill="url(#paint20_linear)"/>
<path opacity="0.91" d="M38.5733 27.7946C38.1489 27.7405 37.6528 28.0256 37.3469 28.5474C37.0425 29.0677 37.0176 29.6656 37.2488 30.0485L38.5733 27.7946Z" fill="url(#paint21_linear)"/>
</g>
<g opacity="0.91">
<path opacity="0.91" d="M49.7731 26.333C49.8463 26.8124 49.5726 27.403 49.0487 27.7976C48.5263 28.1908 47.9131 28.2727 47.5092 28.0417L49.7731 26.333Z" fill="url(#paint22_linear)"/>
<path opacity="0.91" d="M49.7731 26.3348C49.3692 26.1039 48.7545 26.1857 48.2321 26.5819C47.7111 26.9765 47.4374 27.5656 47.5106 28.045L49.7731 26.3348Z" fill="url(#paint23_linear)"/>
</g>
<g opacity="0.91">
<path opacity="0.91" d="M34.7861 40.7695C35.0056 41.2022 34.9295 41.8497 34.5563 42.3876C34.1831 42.9241 33.6255 43.193 33.1704 43.0995L34.7861 40.7695Z" fill="url(#paint24_linear)"/>
<path opacity="0.91" d="M34.786 40.7693C34.3308 40.6757 33.7718 40.9447 33.3986 41.4841C33.0269 42.022 32.9523 42.6666 33.1703 43.0992L34.786 40.7693Z" fill="url(#paint25_linear)"/>
</g>
<g opacity="0.91">
<path opacity="0.91" d="M34.1974 43.8809C34.5531 44.2872 34.6497 45.0034 34.3965 45.6846C34.1433 46.3657 33.6165 46.8072 33.1013 46.832L34.1974 43.8809Z" fill="url(#paint26_linear)"/>
<path opacity="0.91" d="M34.1975 43.8809C33.6823 43.9057 33.154 44.3486 32.9009 45.0312C32.6491 45.7124 32.7457 46.4271 33.1013 46.832L34.1975 43.8809Z" fill="url(#paint27_linear)"/>
</g>
<g opacity="0.91">
<path opacity="0.91" d="M43.4246 30.8379C43.4261 31.4752 42.9563 32.19 42.1997 32.6022C41.4446 33.0129 40.6309 32.9983 40.1523 32.6212L43.4246 30.8379Z" fill="url(#paint28_linear)"/>
<path opacity="0.91" d="M43.4246 30.8398C42.9461 30.4613 42.1295 30.4481 41.3743 30.8618C40.6207 31.274 40.1509 31.9873 40.1523 32.6231L43.4246 30.8398Z" fill="url(#paint29_linear)"/>
</g>
<g opacity="0.91">
<path opacity="0.91" d="M45.6475 36.229C45.4192 36.4921 44.9699 36.6164 44.5119 36.5141C44.0538 36.4117 43.726 36.115 43.6646 35.7891L45.6475 36.229Z" fill="url(#paint30_linear)"/>
<path opacity="0.91" d="M45.6477 36.2287C45.5862 35.9013 45.2569 35.6045 44.7974 35.5037C44.3393 35.4028 43.8915 35.5271 43.6632 35.7902L45.6477 36.2287Z" fill="url(#paint31_linear)"/>
</g>
<g opacity="0.91">
<path opacity="0.91" d="M29.333 40.0234C29.3769 40.3684 29.1706 40.7864 28.7901 41.0598C28.4096 41.3331 27.9691 41.3799 27.6837 41.2089L29.333 40.0234Z" fill="url(#paint32_linear)"/>
<path opacity="0.91" d="M29.333 40.0236C29.0477 39.8511 28.6057 39.8994 28.2252 40.1741C27.8447 40.4475 27.6398 40.8655 27.6837 41.209L29.333 40.0236Z" fill="url(#paint33_linear)"/>
</g>
<g opacity="0.91">
<path opacity="0.91" d="M45.9785 23.4229C46.2799 23.9944 46.1936 24.8553 45.7077 25.5789C45.2233 26.3009 44.4872 26.6693 43.8813 26.5567L45.9785 23.4229Z" fill="url(#paint34_linear)"/>
<path opacity="0.91" d="M45.9784 23.4227C45.3711 23.3087 44.6335 23.6785 44.1491 24.4035C43.6662 25.127 43.5813 25.9865 43.8813 26.5566L45.9784 23.4227Z" fill="url(#paint35_linear)"/>
</g>
<path d="M42.4923 37.4893C42.605 38.2596 43.3045 38.9933 44.2967 39.2857C45.2875 39.5766 46.2709 39.3398 46.7846 38.7565L42.4923 37.4893Z" fill="#FFE454"/>
<path d="M42.4923 37.4908C43.006 36.9061 43.9924 36.6693 44.9846 36.9631C45.9739 37.2569 46.6719 37.9892 46.7846 38.7581L42.4923 37.4908Z" fill="#B5C734"/>
<path d="M39.7821 35.3594C39.8626 35.8783 40.3382 36.3694 41.0099 36.5623C41.6802 36.7538 42.3432 36.5887 42.6856 36.1925L39.7821 35.3594Z" fill="#DBE126"/>
<path d="M39.7821 35.3594C40.126 34.9618 40.7904 34.7981 41.4607 34.9911C42.1295 35.184 42.6051 35.6751 42.6856 36.1926L39.7821 35.3594Z" fill="#B5C734"/>
<path d="M43.5636 34.6829C43.8987 35.0863 44.5602 35.2647 45.2349 35.0834C45.908 34.9036 46.3925 34.4213 46.4817 33.9053L43.5636 34.6829Z" fill="#DBE126"/>
<path d="M43.5636 34.683C43.6529 34.1656 44.1387 33.6832 44.8134 33.5049C45.4866 33.3266 46.1466 33.5034 46.4817 33.9068L43.5636 34.683Z" fill="#B5C734"/>
<path d="M44.9029 44.2769C45.1502 43.7682 45.039 43.0754 44.578 42.5492C44.117 42.0244 43.4468 41.8242 42.9097 41.9996L44.9029 44.2769Z" fill="#DBE126"/>
<path d="M44.9042 44.2768C44.3671 44.4537 43.694 44.252 43.233 43.7258C42.7734 43.1996 42.6637 42.5082 42.911 42.001L44.9042 44.2768Z" fill="#B5C734"/>
<path d="M30.7476 31.9707C30.831 31.579 30.6378 31.12 30.2325 30.8365C29.8271 30.5529 29.331 30.528 28.9915 30.74L30.7476 31.9707Z" fill="#DBE126"/>
<path d="M30.7466 31.971C30.4057 32.1829 29.9095 32.1581 29.5027 31.8731C29.0973 31.588 28.9056 31.1305 28.989 30.7402L30.7466 31.971Z" fill="#B5C734"/>
<path d="M36.4499 34.4046C36.7938 34.197 36.9943 33.7425 36.9226 33.2513C36.8509 32.7617 36.5289 32.3845 36.1411 32.2822L36.4499 34.4046Z" fill="#DBE126"/>
<path d="M36.4499 34.4051C36.0621 34.3042 35.7386 33.9242 35.6684 33.4345C35.5981 32.9449 35.7986 32.4917 36.1411 32.2842L36.4499 34.4051Z" fill="#B5C734"/>
<path d="M40.5058 38.4974C40.6214 38.0779 40.4414 37.5677 40.017 37.2345C39.5941 36.9012 39.0585 36.8427 38.675 37.0518L40.5058 38.4974Z" fill="#DBE126"/>
<path d="M40.505 38.4954C40.1216 38.7044 39.5845 38.646 39.1616 38.3112C38.7401 37.9765 38.5601 37.4693 38.6757 37.0498L40.505 38.4954Z" fill="#B5C734"/>
<path d="M44.3057 32.0616C44.3759 31.6626 44.752 31.2898 45.273 31.1539C45.794 31.018 46.3018 31.1554 46.5608 31.4667L44.3057 32.0616Z" fill="#DBE126"/>
<path d="M44.3057 32.0617C44.5647 32.3745 45.0754 32.5119 45.5964 32.3745C46.116 32.2371 46.4906 31.8658 46.5623 31.4668L44.3057 32.0617Z" fill="#B5C734"/>
<path d="M37.303 52.9441C37.385 52.9295 37.6659 52.8578 37.8167 52.5246C37.9674 52.1898 38.0142 52.0919 38.326 51.8303C38.6377 51.5672 38.3216 51.2982 38.2689 51.2091C38.2162 51.1199 38.2045 50.9971 38.1928 50.8787C38.1811 50.7588 38.1269 50.4139 38.1386 50.2195C38.1503 50.0265 38.1869 49.4594 38.1782 49.3015C38.1694 49.1451 38.1167 48.8952 38.0494 48.7636C37.9835 48.6321 37.906 48.309 37.9103 48.255C37.9147 48.2009 37.9879 48.2023 38.0552 48.2067C38.124 48.2126 38.3055 48.2301 38.5191 48.2345C38.7328 48.2389 38.9231 48.1643 39.0943 48.1059C39.2655 48.0474 39.5479 47.8281 39.6226 47.777C39.8538 47.6162 39.7397 47.4598 39.7221 47.394C39.706 47.3297 39.504 47.0096 39.3753 46.7377C39.2465 46.4658 38.585 45.3286 38.5308 45.2483C38.4767 45.1679 38.2894 44.9135 38.1855 44.7674C38.1269 44.6855 37.9352 44.4546 37.8211 44.2251C37.7069 43.997 37.9045 43.981 38.0172 44.0716C38.1211 44.1549 38.5162 44.4604 38.5894 44.5174C38.6465 44.5613 38.6567 44.5905 38.7518 44.687C38.847 44.7834 39.0211 45.0158 39.0884 45.1313C39.1557 45.2468 39.3709 45.2848 39.5114 45.2819C39.7206 45.2775 39.8567 45.3535 40.0163 45.469C40.1509 45.5669 40.2504 45.5523 40.2211 45.4909C40.1919 45.4295 40.0528 45.2877 39.9416 45.1898C39.8289 45.0918 39.8041 45.0348 39.6958 44.9939C39.5875 44.9515 39.3665 44.82 39.2904 44.7557C39.2143 44.6899 39.0811 44.38 39.0474 44.323C39.027 44.2879 39.0167 44.2645 39.0226 44.2265C39.027 44.1958 39.0562 44.1768 39.0694 44.1578C39.0884 44.1286 39.1382 44.1344 39.0562 43.9985C39.0167 43.9313 38.986 43.8743 38.8689 43.6915C38.7826 43.5556 38.7606 43.4942 38.6933 43.3627C38.664 43.3071 38.6157 43.2033 38.5616 43.1112C38.5089 43.0045 38.4708 42.968 38.4474 42.9008C38.4138 42.8145 38.4372 42.6727 38.544 42.6274C38.6743 42.5733 38.7884 42.664 38.8074 42.8145C38.8104 42.8335 38.8426 42.8438 38.8572 42.8291C39.0021 42.6815 39.0606 42.4798 39.0372 42.2415C39.0782 42.3366 39.2392 42.4856 39.4162 42.5105C39.4426 42.5149 39.4543 42.4827 39.4338 42.4666C39.2099 42.2752 39.1221 41.9097 39.1894 41.5268C39.2626 41.1087 39.2553 40.8851 39.2201 40.755C39.185 40.6249 39.0152 40.3837 39.0152 40.3837C39.0152 40.3837 38.8909 40.1981 38.8704 40.0212C38.8499 39.8444 38.7094 39.6266 38.6201 39.5549C38.5308 39.4833 38.4943 39.4526 38.386 39.3766C38.2777 39.3006 37.704 39.0653 37.3381 39.1442C37.3352 39.1442 37.3323 39.1457 37.3308 39.1457C37.3089 39.1486 37.2884 39.1515 37.2737 39.1559C37.2181 39.1734 37.1201 39.21 37.0484 39.2582C36.9064 39.3445 36.7893 39.4672 36.6781 39.6105C36.6562 39.4614 36.621 39.2378 36.6123 39.0843C36.5991 38.8811 36.5566 38.3841 36.5552 38.1853H36.5566C36.5566 38.1678 36.5566 38.1488 36.5566 38.1298C36.561 38.0655 36.5698 38.0099 36.5874 37.9515C36.5903 37.9427 36.5932 37.9354 36.5976 37.9266C36.6123 37.8755 36.6445 37.8155 36.6927 37.76C36.7542 37.6884 36.9079 37.453 36.9254 37.4136C36.943 37.3741 36.9825 37.3112 36.9737 37.2703C36.9664 37.2308 36.9869 37.187 37.0015 37.1519C37.0162 37.1168 36.9913 37.0891 36.9445 37.1081C36.8976 37.1271 36.8567 37.1636 36.8391 37.1943C36.8215 37.225 36.7849 37.3083 36.741 37.3668C36.6971 37.4253 36.643 37.3799 36.6401 37.3536C36.6371 37.3273 36.6474 37.2922 36.6532 37.2586C36.6591 37.225 36.6913 37.092 36.703 37.0481C36.7147 37.0043 36.7264 36.8713 36.722 36.7587C36.7176 36.6462 36.6166 36.6637 36.5991 36.7134C36.5815 36.7646 36.5815 36.8552 36.5727 36.8917C36.564 36.9297 36.5274 37.0452 36.5025 37.1022C36.4791 37.1592 36.4469 37.1431 36.444 37.1256C36.441 37.1081 36.4337 37.073 36.4337 37.0364C36.4337 37.0014 36.4527 36.8084 36.4513 36.69C36.4498 36.5702 36.3254 36.614 36.3166 36.6564C36.3079 36.6988 36.3064 36.7485 36.3064 36.7865C36.3064 36.8245 36.2713 36.994 36.261 37.0993C36.2508 37.2045 36.204 37.092 36.1981 37.0584C36.1922 37.0247 36.1864 36.8815 36.1805 36.7821C36.1732 36.6827 36.1074 36.6725 36.0869 36.6783C36.0664 36.6842 36.0518 36.709 36.0415 36.766C36.0313 36.823 36.0532 37.0876 36.0488 37.1665C36.0444 37.2455 36.002 37.2279 35.9844 37.2031C35.9683 37.1782 35.9376 37.1241 35.9288 37.0934C35.92 37.0627 35.8908 36.975 35.8396 36.9254C35.7883 36.8757 35.762 36.9166 35.7605 36.975C35.7591 37.0321 35.7796 37.0686 35.8015 37.1285C35.8235 37.1885 35.8791 37.3317 35.8966 37.4077C35.9157 37.4837 36.0137 37.7951 36.0298 37.8681C36.0313 37.874 36.0313 37.8798 36.0327 37.8871C36.0327 37.8886 36.0342 37.8901 36.0342 37.8915C36.04 37.9149 36.0444 37.9383 36.0488 37.9617C36.0518 38.0567 36.0547 38.1532 36.0576 38.2394C36.062 38.4484 36.0049 38.7671 35.98 39.0667C35.9596 39.3298 35.9478 39.8224 35.9874 40.2054C35.9859 40.2054 35.9844 40.2069 35.983 40.2069C35.9874 40.3633 35.9961 40.7988 35.983 41.0853C35.9669 41.4391 35.8761 42.1027 35.8761 42.1027C35.8761 42.1027 35.8396 43.5191 35.7942 43.7559C35.7488 43.9927 35.5264 44.9252 35.3903 45.2702C35.0434 46.1428 34.9644 47.682 34.9688 47.8384C34.9747 48.0606 35.1137 48.2126 35.2878 48.2769C35.462 48.3412 36.1542 48.2447 36.1542 48.2447C36.3327 48.4786 36.5713 49.2445 36.6006 49.36C36.6298 49.4769 37.0381 50.7413 37.0923 50.9693C37.1464 51.1974 37.1669 51.2661 37.1406 51.4415C37.1142 51.6169 37.082 51.842 37.0352 51.9531C36.9884 52.0627 36.9401 52.4442 36.8801 52.6035C36.8201 52.7628 36.9767 52.7848 37.1142 52.6678C37.2518 52.5523 37.4303 52.2454 37.4303 52.2454C37.4303 52.2454 37.4142 52.3872 37.3923 52.45C37.3703 52.5114 37.3308 52.6313 37.2445 52.7468" fill="#046C38"/>
</g>
<defs>
<linearGradient id="paint0_linear" x1="24.7601" y1="34.537" x2="26.0834" y2="32.6757" gradientUnits="userSpaceOnUse">
<stop offset="0.0123" stop-color="#16B14B"/>
<stop offset="0.1632" stop-color="#50B548"/>
<stop offset="0.4233" stop-color="#8AC141"/>
<stop offset="1" stop-color="#FFE400"/>
</linearGradient>
<linearGradient id="paint1_linear" x1="24.8876" y1="34.3298" x2="26.2107" y2="32.4688" gradientUnits="userSpaceOnUse">
<stop offset="0.0123" stop-color="#16B14B"/>
<stop offset="0.2403" stop-color="#50B548"/>
<stop offset="0.6335" stop-color="#8AC141"/>
<stop offset="1" stop-color="#FFE400"/>
</linearGradient>
<linearGradient id="paint2_linear" x1="33.9569" y1="29.9225" x2="35.7038" y2="30.4809" gradientUnits="userSpaceOnUse">
<stop offset="0.0123" stop-color="#16B14B"/>
<stop offset="0.1632" stop-color="#50B548"/>
<stop offset="0.4233" stop-color="#8AC141"/>
<stop offset="1" stop-color="#FFE400"/>
</linearGradient>
<linearGradient id="paint3_linear" x1="34.1468" y1="29.9692" x2="35.8933" y2="30.5275" gradientUnits="userSpaceOnUse">
<stop offset="0.0123" stop-color="#16B14B"/>
<stop offset="0.2403" stop-color="#50B548"/>
<stop offset="0.6335" stop-color="#8AC141"/>
<stop offset="1" stop-color="#FFE400"/>
</linearGradient>
<linearGradient id="paint4_linear" x1="41.3831" y1="41.7222" x2="45.4543" y2="39.1596" gradientUnits="userSpaceOnUse">
<stop offset="0.0123" stop-color="#16B14B"/>
<stop offset="0.1632" stop-color="#50B548"/>
<stop offset="0.4233" stop-color="#8AC141"/>
<stop offset="1" stop-color="#FFE400"/>
</linearGradient>
<linearGradient id="paint5_linear" x1="41.8021" y1="40.2402" x2="43.6682" y2="39.5088" gradientUnits="userSpaceOnUse">
<stop offset="0.0123" stop-color="#16B14B"/>
<stop offset="0.2403" stop-color="#50B548"/>
<stop offset="0.6335" stop-color="#8AC141"/>
<stop offset="1" stop-color="#FFE400"/>
</linearGradient>
<linearGradient id="paint6_linear" x1="32.7711" y1="26.8095" x2="34.3504" y2="27.0549" gradientUnits="userSpaceOnUse">
<stop offset="0.0123" stop-color="#16B14B"/>
<stop offset="0.1632" stop-color="#50B548"/>
<stop offset="0.4233" stop-color="#8AC141"/>
<stop offset="1" stop-color="#FFE400"/>
</linearGradient>
<linearGradient id="paint7_linear" x1="32.9407" y1="26.8247" x2="34.5196" y2="27.07" gradientUnits="userSpaceOnUse">
<stop offset="0.0123" stop-color="#16B14B"/>
<stop offset="0.2403" stop-color="#50B548"/>
<stop offset="0.6335" stop-color="#8AC141"/>
<stop offset="1" stop-color="#FFE400"/>
</linearGradient>
<linearGradient id="paint8_linear" x1="28.1013" y1="36.5366" x2="28.4484" y2="35.4474" gradientUnits="userSpaceOnUse">
<stop offset="0.0123" stop-color="#16B14B"/>
<stop offset="0.1632" stop-color="#50B548"/>
<stop offset="0.4233" stop-color="#8AC141"/>
<stop offset="1" stop-color="#FFE400"/>
</linearGradient>
<linearGradient id="paint9_linear" x1="28.1305" y1="36.418" x2="28.4775" y2="35.3289" gradientUnits="userSpaceOnUse">
<stop offset="0.0123" stop-color="#16B14B"/>
<stop offset="0.2403" stop-color="#50B548"/>
<stop offset="0.6335" stop-color="#8AC141"/>
<stop offset="1" stop-color="#FFE400"/>
</linearGradient>
<linearGradient id="paint10_linear" x1="33.5871" y1="37.627" x2="34.3398" y2="35.9557" gradientUnits="userSpaceOnUse">
<stop offset="0.0123" stop-color="#16B14B"/>
<stop offset="0.1632" stop-color="#50B548"/>
<stop offset="0.4233" stop-color="#8AC141"/>
<stop offset="1" stop-color="#FFE400"/>
</linearGradient>
<linearGradient id="paint11_linear" x1="33.6552" y1="37.444" x2="34.4078" y2="35.7731" gradientUnits="userSpaceOnUse">
<stop offset="0.0123" stop-color="#16B14B"/>
<stop offset="0.2403" stop-color="#50B548"/>
<stop offset="0.6335" stop-color="#8AC141"/>
<stop offset="1" stop-color="#FFE400"/>
</linearGradient>
<linearGradient id="paint12_linear" x1="23.4937" y1="39.7842" x2="24.0583" y2="38.0412" gradientUnits="userSpaceOnUse">
<stop offset="0.0123" stop-color="#16B14B"/>
<stop offset="0.1632" stop-color="#50B548"/>
<stop offset="0.4233" stop-color="#8AC141"/>
<stop offset="1" stop-color="#FFE400"/>
</linearGradient>
<linearGradient id="paint13_linear" x1="23.5413" y1="39.5955" x2="24.1058" y2="37.8529" gradientUnits="userSpaceOnUse">
<stop offset="0.0123" stop-color="#16B14B"/>
<stop offset="0.2403" stop-color="#50B548"/>
<stop offset="0.6335" stop-color="#8AC141"/>
<stop offset="1" stop-color="#FFE400"/>
</linearGradient>
<linearGradient id="paint14_linear" x1="43.799" y1="45.5937" x2="42.1153" y2="45.5535" gradientUnits="userSpaceOnUse">
<stop offset="0.0123" stop-color="#16B14B"/>
<stop offset="0.1632" stop-color="#50B548"/>
<stop offset="0.4233" stop-color="#8AC141"/>
<stop offset="1" stop-color="#FFE400"/>
</linearGradient>
<linearGradient id="paint15_linear" x1="43.6195" y1="45.6114" x2="41.9361" y2="45.5712" gradientUnits="userSpaceOnUse">
<stop offset="0.0123" stop-color="#16B14B"/>
<stop offset="0.2403" stop-color="#50B548"/>
<stop offset="0.6335" stop-color="#8AC141"/>
<stop offset="1" stop-color="#FFE400"/>
</linearGradient>
<linearGradient id="paint16_linear" x1="34.4672" y1="24.6007" x2="36.5462" y2="25.7672" gradientUnits="userSpaceOnUse">
<stop offset="0.0123" stop-color="#16B14B"/>
<stop offset="0.1632" stop-color="#50B548"/>
<stop offset="0.4233" stop-color="#8AC141"/>
<stop offset="1" stop-color="#FFE400"/>
</linearGradient>
<linearGradient id="paint17_linear" x1="34.6968" y1="24.7095" x2="36.7753" y2="25.8758" gradientUnits="userSpaceOnUse">
<stop offset="0.0123" stop-color="#16B14B"/>
<stop offset="0.2403" stop-color="#50B548"/>
<stop offset="0.6335" stop-color="#8AC141"/>
<stop offset="1" stop-color="#FFE400"/>
</linearGradient>
<linearGradient id="paint18_linear" x1="48.5078" y1="33.3379" x2="47.3919" y2="31.7683" gradientUnits="userSpaceOnUse">
<stop offset="0.0123" stop-color="#16B14B"/>
<stop offset="0.1632" stop-color="#50B548"/>
<stop offset="0.4233" stop-color="#8AC141"/>
<stop offset="1" stop-color="#FFE400"/>
</linearGradient>
<linearGradient id="paint19_linear" x1="48.4002" y1="33.1635" x2="47.2845" y2="31.5941" gradientUnits="userSpaceOnUse">
<stop offset="0.0123" stop-color="#16B14B"/>
<stop offset="0.2403" stop-color="#50B548"/>
<stop offset="0.6335" stop-color="#8AC141"/>
<stop offset="1" stop-color="#FFE400"/>
</linearGradient>
<linearGradient id="paint20_linear" x1="38.729" y1="28.9872" x2="37.2556" y2="28.9821" gradientUnits="userSpaceOnUse">
<stop offset="0.0123" stop-color="#16B14B"/>
<stop offset="0.1632" stop-color="#50B548"/>
<stop offset="0.4233" stop-color="#8AC141"/>
<stop offset="1" stop-color="#FFE400"/>
</linearGradient>
<linearGradient id="paint21_linear" x1="38.5723" y1="28.9757" x2="37.0992" y2="28.9706" gradientUnits="userSpaceOnUse">
<stop offset="0.0123" stop-color="#16B14B"/>
<stop offset="0.2403" stop-color="#50B548"/>
<stop offset="0.6335" stop-color="#8AC141"/>
<stop offset="1" stop-color="#FFE400"/>
</linearGradient>
<linearGradient id="paint22_linear" x1="49.4468" y1="27.574" x2="47.9727" y2="26.9573" gradientUnits="userSpaceOnUse">
<stop offset="0.0123" stop-color="#16B14B"/>
<stop offset="0.1632" stop-color="#50B548"/>
<stop offset="0.4233" stop-color="#8AC141"/>
<stop offset="1" stop-color="#FFE400"/>
</linearGradient>
<linearGradient id="paint23_linear" x1="49.2944" y1="27.4983" x2="47.8207" y2="26.8818" gradientUnits="userSpaceOnUse">
<stop offset="0.0123" stop-color="#16B14B"/>
<stop offset="0.2403" stop-color="#50B548"/>
<stop offset="0.6335" stop-color="#8AC141"/>
<stop offset="1" stop-color="#FFE400"/>
</linearGradient>
<linearGradient id="paint24_linear" x1="34.8432" y1="42.0527" x2="33.25" y2="41.9275" gradientUnits="userSpaceOnUse">
<stop offset="0.0123" stop-color="#16B14B"/>
<stop offset="0.1632" stop-color="#50B548"/>
<stop offset="0.4233" stop-color="#8AC141"/>
<stop offset="1" stop-color="#FFE400"/>
</linearGradient>
<linearGradient id="paint25_linear" x1="34.6747" y1="42.0277" x2="33.0817" y2="41.9025" gradientUnits="userSpaceOnUse">
<stop offset="0.0123" stop-color="#16B14B"/>
<stop offset="0.2403" stop-color="#50B548"/>
<stop offset="0.6335" stop-color="#8AC141"/>
<stop offset="1" stop-color="#FFE400"/>
</linearGradient>
<linearGradient id="paint26_linear" x1="34.6312" y1="45.2136" x2="32.8823" y2="45.518" gradientUnits="userSpaceOnUse">
<stop offset="0.0123" stop-color="#16B14B"/>
<stop offset="0.1632" stop-color="#50B548"/>
<stop offset="0.4233" stop-color="#8AC141"/>
<stop offset="1" stop-color="#FFE400"/>
</linearGradient>
<linearGradient id="paint27_linear" x1="34.4431" y1="45.2333" x2="32.6945" y2="45.5376" gradientUnits="userSpaceOnUse">
<stop offset="0.0123" stop-color="#16B14B"/>
<stop offset="0.2403" stop-color="#50B548"/>
<stop offset="0.6335" stop-color="#8AC141"/>
<stop offset="1" stop-color="#FFE400"/>
</linearGradient>
<linearGradient id="paint28_linear" x1="42.7301" y1="32.389" x2="40.9349" y2="31.3016" gradientUnits="userSpaceOnUse">
<stop offset="0.0123" stop-color="#16B14B"/>
<stop offset="0.1632" stop-color="#50B548"/>
<stop offset="0.4233" stop-color="#8AC141"/>
<stop offset="1" stop-color="#FFE400"/>
</linearGradient>
<linearGradient id="paint29_linear" x1="42.547" y1="32.2612" x2="40.7521" y2="31.1739" gradientUnits="userSpaceOnUse">
<stop offset="0.0123" stop-color="#16B14B"/>
<stop offset="0.2403" stop-color="#50B548"/>
<stop offset="0.6335" stop-color="#8AC141"/>
<stop offset="1" stop-color="#FFE400"/>
</linearGradient>
<linearGradient id="paint30_linear" x1="44.7926" y1="36.5989" x2="44.4455" y2="35.5097" gradientUnits="userSpaceOnUse">
<stop offset="0.0123" stop-color="#16B14B"/>
<stop offset="0.1632" stop-color="#50B548"/>
<stop offset="0.4233" stop-color="#8AC141"/>
<stop offset="1" stop-color="#FFE400"/>
</linearGradient>
<linearGradient id="paint31_linear" x1="44.7635" y1="36.4803" x2="44.4165" y2="35.3913" gradientUnits="userSpaceOnUse">
<stop offset="0.0123" stop-color="#16B14B"/>
<stop offset="0.2403" stop-color="#50B548"/>
<stop offset="0.6335" stop-color="#8AC141"/>
<stop offset="1" stop-color="#FFE400"/>
</linearGradient>
<linearGradient id="paint32_linear" x1="29.0618" y1="40.9141" x2="28.017" y2="40.4474" gradientUnits="userSpaceOnUse">
<stop offset="0.0123" stop-color="#16B14B"/>
<stop offset="0.1632" stop-color="#50B548"/>
<stop offset="0.4233" stop-color="#8AC141"/>
<stop offset="1" stop-color="#FFE400"/>
</linearGradient>
<linearGradient id="paint33_linear" x1="28.954" y1="40.8572" x2="27.9095" y2="40.3907" gradientUnits="userSpaceOnUse">
<stop offset="0.0123" stop-color="#16B14B"/>
<stop offset="0.2403" stop-color="#50B548"/>
<stop offset="0.6335" stop-color="#8AC141"/>
<stop offset="1" stop-color="#FFE400"/>
</linearGradient>
<linearGradient id="paint34_linear" x1="46.118" y1="25.1175" x2="43.9969" y2="24.9857" gradientUnits="userSpaceOnUse">
<stop offset="0.0123" stop-color="#16B14B"/>
<stop offset="0.1632" stop-color="#50B548"/>
<stop offset="0.4233" stop-color="#8AC141"/>
<stop offset="1" stop-color="#FFE400"/>
</linearGradient>
<linearGradient id="paint35_linear" x1="45.8934" y1="25.0881" x2="43.7727" y2="24.9563" gradientUnits="userSpaceOnUse">
<stop offset="0.0123" stop-color="#16B14B"/>
<stop offset="0.2403" stop-color="#50B548"/>
<stop offset="0.6335" stop-color="#8AC141"/>
<stop offset="1" stop-color="#FFE400"/>
</linearGradient>
<clipPath id="clip0">
<rect width="28.9296" height="30.0423" fill="white" transform="translate(22.1636 22.9014)"/>
</clipPath>
</defs>
</svg>
