<svg width="526" height="702" viewBox="0 0 526 702" fill="none" xmlns="http://www.w3.org/2000/svg">
<g opacity="0.8">
<path d="M304.037 174.557C365.323 236.275 382.904 323.306 380.498 326.078C377.482 329.594 296.28 315.706 234.994 253.987C173.708 192.269 155.887 105.515 158.534 102.467C160.827 99.7814 242.766 112.733 304.037 174.557Z" fill="#F4F4F4"/>
<path d="M528.117 186.327C555.28 271.221 532.199 355.342 528.805 356.52C524.469 357.946 458.327 304.243 431.163 219.349C404 134.456 426.772 50.3821 430.475 49.1569C433.643 48.1517 500.939 101.538 528.117 186.327Z" fill="#F4F4F4"/>
<path d="M546.004 508.976C497.589 579.452 496.907 667.91 499.816 670.2C503.535 673.186 580.705 646.692 629.218 576.235C677.731 505.778 678.58 417.568 675.406 415.011C672.778 412.883 594.517 438.519 546.004 508.976Z" fill="#F4F4F4"/>
<path d="M473.795 810.618C513.979 889.724 504.745 977.282 501.572 979.041C497.624 981.298 424.166 940.207 383.968 861.206C343.784 782.1 352.694 694.695 356.191 692.782C359.152 691.089 433.612 731.512 473.795 810.618Z" fill="#F4F4F4"/>
<path d="M597.955 -111.351C623.091 -43.6833 607.649 25.5157 604.972 26.616C601.549 28.0034 545.991 -12.6438 520.855 -80.3116C495.72 -147.979 510.852 -217.13 513.838 -218.279C516.303 -219.312 572.82 -179.019 597.955 -111.351Z" fill="#F4F4F4"/>
<path d="M452.528 510.776C514.483 537.144 577.163 521.808 578 519.015C579.166 515.465 541.043 458.055 479.088 431.687C417.133 405.318 354.633 420.434 353.516 423.452C352.759 426.029 390.573 484.407 452.528 510.776Z" fill="#F4F4F4"/>
</g>
</svg>
