<svg width="46" height="50" viewBox="0 0 46 50" fill="none" xmlns="http://www.w3.org/2000/svg">
<path fill-rule="evenodd" clip-rule="evenodd" d="M26.4603 44.7471C37.0656 42.9032 45.1288 33.6627 45.1288 22.5409C45.1288 10.0919 35.0264 0 22.5644 0C10.1024 0 0 10.0919 0 22.5409C0 33.3101 7.56001 42.3154 17.6676 44.5495L22.1613 49.1074L26.4603 44.7471Z" fill="#0C6D38"/>
<ellipse cx="22.8968" cy="22.712" rx="14.133" ry="14.1182" fill="white"/>
<g clip-path="url(#clip0)">
<g clip-path="url(#clip1)">
<path d="M16.0145 15.3364C16.014 15.3364 16.0135 15.3364 16.013 15.3364C15.8364 15.3364 15.6704 15.4052 15.545 15.5303C15.4182 15.6568 15.3484 15.8252 15.3484 16.0044V26.0206C15.3484 26.3879 15.6484 26.6875 16.0172 26.6884C17.572 26.6921 20.1769 27.0162 21.974 28.8968V18.4145C21.974 18.29 21.9422 18.173 21.8821 18.0762C20.4072 15.701 17.5729 15.3401 16.0145 15.3364Z" fill="#0C6D38"/>
<path d="M29.6365 26.0207V16.0044C29.6365 15.8252 29.5667 15.6568 29.4399 15.5303C29.3145 15.4052 29.1483 15.3364 28.972 15.3364C28.9714 15.3364 28.9708 15.3364 28.9703 15.3364C27.4121 15.3401 24.5777 15.701 23.1027 18.0763C23.0427 18.1731 23.011 18.29 23.011 18.4146V28.8968C24.808 27.0162 27.4129 26.6921 28.9677 26.6884C29.3365 26.6875 29.6365 26.3879 29.6365 26.0207Z" fill="#0C6D38"/>
<path d="M31.1579 17.6465H30.6736V26.0208C30.6736 26.9586 29.9095 27.7233 28.9702 27.7256C27.6514 27.7288 25.4769 27.9867 23.9369 29.4442C26.6004 28.7921 29.4082 29.216 31.0084 29.5807C31.2082 29.6262 31.4146 29.5792 31.5747 29.4516C31.7342 29.3243 31.8258 29.1341 31.8258 28.9299V18.3143C31.8258 17.9461 31.5261 17.6465 31.1579 17.6465Z" fill="#0C6D38"/>
<path d="M14.3112 26.0208V17.6465H13.8269C13.4587 17.6465 13.1591 17.9461 13.1591 18.3143V28.9297C13.1591 29.1339 13.2506 29.3241 13.4101 29.4514C13.57 29.5789 13.7763 29.6261 13.9764 29.5805C15.5766 29.2158 18.3845 28.7919 21.0479 29.444C19.5079 27.9865 17.3334 27.7287 16.0146 27.7256C15.0754 27.7233 14.3112 26.9586 14.3112 26.0208Z" fill="#0C6D38"/>
</g>
</g>
<defs>
<clipPath id="clip0">
<rect width="14" height="14" fill="white" transform="translate(15.3857 15)"/>
</clipPath>
<clipPath id="clip1">
<rect width="18.6667" height="18.6667" fill="white" transform="translate(13.1591 13.1333)"/>
</clipPath>
</defs>
</svg>
