<svg width="46" height="50" viewBox="0 0 46 50" fill="none" xmlns="http://www.w3.org/2000/svg">
<path fill-rule="evenodd" clip-rule="evenodd" d="M26.4603 44.7471C37.0656 42.9032 45.1288 33.6627 45.1288 22.5409C45.1288 10.0919 35.0264 0 22.5644 0C10.1024 0 0 10.0919 0 22.5409C0 33.3101 7.56001 42.3154 17.6676 44.5495L22.1613 49.1074L26.4603 44.7471Z" fill="#539B44"/>
<ellipse cx="22.8968" cy="22.712" rx="14.133" ry="14.1182" fill="white"/>
<path d="M30.0039 20.0098H28.9746V18.5156C28.9746 17.2862 28.0768 16.2687 26.9039 16.0678C26.7099 15.4676 26.1523 15.0293 25.4883 15.0293H19.5117C18.8477 15.0293 18.2901 15.4676 18.0961 16.0678C16.9232 16.2687 16.0254 17.2862 16.0254 18.5156V20.0098H14.9961C14.446 20.0098 14 20.4557 14 21.0059C14 21.5559 14.446 22.002 14.9961 22.002H30.0039C30.554 22.002 31 21.5559 31 21.0059C31 20.4557 30.554 20.0098 30.0039 20.0098ZM27.9785 20.0098H17.0215V18.5156C17.0215 17.8269 17.4922 17.2513 18.1272 17.0791C18.3484 17.628 18.8845 18.0176 19.5117 18.0176H25.4883C26.1155 18.0176 26.6516 17.628 26.8728 17.0791C27.5078 17.2513 27.9785 17.8269 27.9785 18.5156V20.0098Z" fill="#539B44"/>
<path d="M15.0966 22.998L15.9203 28.6624C16.0137 29.4084 16.6508 29.9707 17.4027 29.9707H27.5971C28.3491 29.9707 28.9863 29.4084 29.0782 28.6721L29.9034 22.998H15.0966ZM19.0136 27.4805C19.0136 27.7558 18.7909 27.9785 18.5156 27.9785C18.2403 27.9785 18.0175 27.7558 18.0175 27.4805V24.4922C18.0175 24.2169 18.2403 23.9941 18.5156 23.9941C18.7909 23.9941 19.0136 24.2169 19.0136 24.4922V27.4805ZM21.0058 27.4805C21.0058 27.7558 20.7831 27.9785 20.5078 27.9785C20.2325 27.9785 20.0097 27.7558 20.0097 27.4805V24.4922C20.0097 24.2169 20.2325 23.9941 20.5078 23.9941C20.7831 23.9941 21.0058 24.2169 21.0058 24.4922V27.4805ZM22.998 27.4805C22.998 27.7558 22.7752 27.9785 22.5 27.9785C22.2247 27.9785 22.0019 27.7558 22.0019 27.4805V24.4922C22.0019 24.2169 22.2247 23.9941 22.5 23.9941C22.7752 23.9941 22.998 24.2169 22.998 24.4922V27.4805ZM24.9902 27.4805C24.9902 27.7558 24.7674 27.9785 24.4921 27.9785C24.2169 27.9785 23.9941 27.7558 23.9941 27.4805V24.4922C23.9941 24.2169 24.2169 23.9941 24.4921 23.9941C24.7674 23.9941 24.9902 24.2169 24.9902 24.4922V27.4805ZM26.9824 27.4805C26.9824 27.7558 26.7596 27.9785 26.4843 27.9785C26.209 27.9785 25.9863 27.7558 25.9863 27.4805V24.4922C25.9863 24.2169 26.209 23.9941 26.4843 23.9941C26.7596 23.9941 26.9824 24.2169 26.9824 24.4922V27.4805Z" fill="#539B44"/>
</svg>
