<svg width="46" height="50" viewBox="0 0 46 50" fill="none" xmlns="http://www.w3.org/2000/svg">
<path fill-rule="evenodd" clip-rule="evenodd" d="M26.4603 44.7471C37.0656 42.9032 45.1288 33.6627 45.1288 22.5409C45.1288 10.0919 35.0264 0 22.5644 0C10.1024 0 0 10.0919 0 22.5409C0 33.3101 7.56001 42.3154 17.6676 44.5495L22.1613 49.1074L26.4603 44.7471Z" fill="#92D505"/>
<ellipse cx="22.8968" cy="22.712" rx="14.133" ry="14.1182" fill="white"/>
<g clip-path="url(#clip0)">
<path d="M20.1204 21.5967H25.8795V24.4352H20.1204V21.5967Z" fill="#92D505"/>
<path d="M30.1636 20.8247H29.764V25.0105H30.1636C30.6253 25.0099 30.9996 24.6358 31.0001 24.1739V21.661C30.9995 21.1993 30.6252 20.8251 30.1636 20.8247Z" fill="#92D505"/>
<path d="M28.197 19.0547H26.6102V26.9771H28.197C28.6587 26.9765 29.033 26.6023 29.0335 26.1406V19.8912C29.033 19.4294 28.6587 19.0553 28.197 19.0547Z" fill="#92D505"/>
<path d="M16.9667 19.8912V26.1406C16.9671 26.6023 17.3414 26.9766 17.8031 26.9771H19.3899V19.0547H17.8031C17.3414 19.0553 16.9671 19.4294 16.9667 19.8912Z" fill="#92D505"/>
<path d="M15 21.6612V24.1739C15.0004 24.6358 15.3747 25.0099 15.8365 25.0105H16.236V20.8247H15.8365C15.3747 20.8251 15.0006 21.1994 15 21.6612Z" fill="#92D505"/>
</g>
<defs>
<clipPath id="clip0">
<rect width="16" height="16" fill="white" transform="translate(15 15)"/>
</clipPath>
</defs>
</svg>
