<svg width="1529" height="434" viewBox="0 0 1529 434" fill="none" xmlns="http://www.w3.org/2000/svg">
<path d="M819.637 1614.41C819.637 1614.41 667.888 884.211 -209.011 472.444" stroke="#177140" stroke-width="0.7808" stroke-miterlimit="10" stroke-linecap="round" stroke-linejoin="round"/>
<path d="M444.803 948.779C444.803 948.779 427.298 67.6386 162.872 -427.042C-109.051 -936.025 -140.975 -1460.01 71.562 -1612.89" stroke="#177140" stroke-width="0.7808" stroke-miterlimit="10" stroke-linecap="round" stroke-linejoin="round"/>
<path d="M360.502 184.189C360.502 184.189 286.454 -211.982 547.667 -446.241" stroke="#177140" stroke-width="0.7808" stroke-miterlimit="10" stroke-linecap="round" stroke-linejoin="round"/>
<path d="M178.59 -65.9226C279.693 34.4736 303.998 174.266 299.631 178.555C294.063 184.132 155.367 159.913 54.101 59.5698C-47.1652 -40.7738 -71.6906 -180.135 -66.9405 -184.908C-63.0092 -188.877 77.3238 -166.266 178.59 -65.9226Z" fill="#177140"/>
<path d="M1242.42 -18.1628C1158.41 67.8152 1040.69 89.2349 1037.05 85.5772C1032.31 80.9136 1051.83 -36.2956 1135.79 -122.411C1219.75 -208.526 1337.11 -230.129 1341.16 -226.151C1344.53 -222.859 1326.38 -104.278 1242.42 -18.1628Z" fill="#177140"/>
<path d="M1522.42 406.01C1438.41 491.988 1320.69 513.407 1317.04 509.75C1312.31 505.086 1331.83 387.877 1415.79 301.762C1499.75 215.647 1617.11 194.044 1621.16 198.022C1624.53 201.314 1606.38 319.894 1522.42 406.01Z" fill="#177140"/>
<path d="M451.573 401.387C372.35 520.009 376.604 661.731 381.803 665.159C388.265 669.533 519.432 618.124 598.666 499.673C677.889 381.052 674.17 239.637 668.436 235.902C663.59 232.622 530.796 282.766 451.573 401.387Z" fill="#177140"/>
<path d="M182.196 373.227C263.9 474.843 271.55 604.256 267.105 607.737C261.554 612.303 137.889 576.156 56.1846 474.539C-25.5193 372.923 -33.573 243.827 -28.8298 239.894C-24.6546 236.624 100.492 271.61 182.196 373.227Z" fill="#177140"/>
</svg>
